<svg xmlns="http://www.w3.org/2000/svg" viewBox="0 0 500 250"><path fill="#F0F3F5" d="M106.656 64.948c-.406-.944-.536-1.88-.64-2.816-.078-.936-.137-1.872-.097-2.804.09-1.86.135-3.723.39-5.573.563-3.686 1.71-7.285 3.394-10.622 1.693-3.324 4.124-6.34 7.233-8.44 3.082-2.155 6.825-3.194 10.532-3.33 1.854-.116 3.74.084 5.542.57 1.78.53 3.574 1.192 5.08 2.337 3.072 2.218 5.186 5.488 6.656 8.896.71 1.73 1.216 3.522 1.703 5.313.465 1.796.863 3.61 1.114 5.448.124.918.22 1.84.315 2.76.11.92.203 1.84.286 2.76.154 1.843.272 3.69.342 5.536l-.787.02c-.135-3.668-.326-7.346-1.004-10.946-.567-3.606-1.325-7.208-2.73-10.572-1.28-3.397-3.42-6.52-6.335-8.618-1.48-.97-3.005-2.006-4.792-2.363-1.75-.434-3.558-.516-5.36-.415-.454-.01-.903.013-1.352.062-.448.046-.903.054-1.345.14-.882.182-1.766.357-2.617.653-1.7.56-3.374 1.277-4.834 2.338-1.42 1.104-2.756 2.31-3.96 3.662-.622.662-1.12 1.426-1.622 2.18l-.744 1.144-.684 1.183c-.885 1.6-1.51 3.332-2.036 5.08-.524 1.753-.91 3.545-1.174 5.352-.3 1.798-.562 3.622-.5 5.448.038 1.793.09 3.713.736 5.27l-.71.345z"/><path fill="#FFF" d="M76.944 146.755l10.298-88.3 69.88-1.105 9.93 89.405"/><path fill="#E6E8F0" d="M76.645 147.02l2.566-22.162.68-5.56.59-5.512 1.172-11.043c.378-3.683.884-7.403 1.333-11.1.43-3.69.75-7.374 1.216-11.074.93-7.4 1.862-14.774 2.68-22.158l.033-.308.323-.015c5.82-.265 11.65-.047 17.47-.3l17.47-.222 8.734-.134c2.912-.052 5.825.007 8.737-.016 2.912-.03 5.822-.188 8.734-.2l8.737-.036h.153l.017.15 2.505 22.348c.83 7.45 1.56 14.91 2.534 22.345l2.615 22.336c.393 3.73.73 7.462 1.176 11.184l1.346 11.164.054.45-.467.01c-3.77.088-7.535-.053-11.303-.017l-5.657.035c-1.888.02-3.772.01-5.648-.034-1.88-.023-3.75-.08-5.632-.084l-5.656.02-5.63-.062c-1.876-.014-3.784.046-5.676.062l-11.255-.093c-3.738-.042-7.575.06-11.308.01l-5.614-.047-5.69.043c-3.807.04-7.553.012-11.335.02zm.598-.53l11.212-.002 5.587.024 5.667-.075c3.788-.076 7.444.043 11.22-.012 3.746-.01 7.545-.137 11.27-.12 1.854.025 3.69.11 5.566.093 1.876-.014 3.764-.07 5.63-.062l5.588.068c1.868.01 3.75-.044 5.624-.062l2.812-.04 2.8.022 5.604.052c3.74.05 7.487-.09 11.226-.014l-.392.438-1.167-11.184c-.395-3.727-.915-7.44-1.372-11.16-.84-7.45-1.648-14.903-2.4-22.36-.368-3.73-.66-7.47-1.137-11.188-.453-3.72-.923-7.44-1.343-11.164-.42-3.724-.902-7.442-1.272-11.172-.384-3.73-.698-7.465-1.175-11.183l.334.293-8.732.298c-2.91.15-5.827-.118-8.737-.01-2.91.072-5.82.287-8.732.31l-8.736.086-17.47.228c-5.826-.11-11.645.258-17.47.168l.298-.27c-.933 7.33-1.773 14.68-2.616 22.016l-1.3 11.01c-.392 3.664-.74 7.307-1.205 10.982l-1.357 11.026-.68 5.52-.598 5.476-2.547 21.967z"/><path fill="#E6E8F0" d="M104.88 62.55c1.105.9 1.154 2.533.402 3.6-.39.542-1.025.924-1.69.98-.662.042-1.304-.12-1.836-.475-.52-.353-.985-.87-1.137-1.538-.164-.666.02-1.388.416-1.9.395-.512.913-.904 1.523-1.118.61-.204 1.334-.154 1.934.182l-.43.76c-.747-.37-1.79-.01-2.333.668-.537.712-.258 1.698.495 2.268.37.27.835.452 1.28.394.443-.06.824-.316 1.068-.698.236-.38.395-.846.368-1.32-.037-.465-.26-.907-.617-1.13l.557-.674zM145.044 63.663c-.557-.73-1.81-.886-2.525-.35-.37.25-.626.712-.684 1.205-.07.496.116 1.005.428 1.336.64.655 1.92.703 2.59.045.337-.33.458-.855.39-1.333-.056-.478-.258-.945-.62-1.22l.534-.693c1.21.884 1.374 2.75.317 3.83-1.036 1.08-2.862 1.04-3.822-.08-.48-.555-.622-1.283-.575-1.953.052-.672.352-1.354.912-1.81.564-.46 1.313-.563 1.972-.46.67.094 1.32.413 1.795.975l-.713.508z"/><path fill="#E6E8F0" d="M102.46 62.563c-.425-3.955-.66-7.93-.504-11.923.254-3.982 1.042-7.955 2.534-11.68 1.48-3.717 3.83-7.16 7.01-9.623l.587-.47.632-.41 1.266-.814c.44-.24.908-.43 1.362-.644.454-.217.91-.427 1.4-.55l1.442-.432c.49-.106.99-.166 1.483-.25l.74-.123c.25-.027.5-.027.75-.04l1.504-.067 1.498.14.748.077.732.17 1.462.344 1.408.52.703.262.668.34 1.356.646c.853.516 1.728 1.027 2.502 1.662 3.15 2.496 5.582 5.814 7.29 9.43 1.59 3.672 2.616 7.567 3.095 11.526.355 3.974.36 7.953.07 11.927l-.784-.078.18-2.942c.026-.49.067-.98.08-1.47l-.016-1.473c-.028-.98.015-1.965-.07-2.94l-.312-2.923c-.493-3.874-1.356-7.73-2.994-11.28-1.512-3.6-3.965-6.79-7-9.193-.356-.333-.788-.563-1.184-.838-.4-.27-.776-.582-1.185-.84-.853-.45-1.664-1.024-2.613-1.262l-1.374-.468-1.42-.29-.706-.142-.72-.052c-.48-.028-.957-.07-1.435-.127-1.912-.02-3.866.15-5.665.86-.468.118-.904.323-1.338.533-.434.208-.878.395-1.306.614l-1.23.763-.613.384-.543.48-1.086.957c-.35.332-.642.72-.992 1.054-.71.66-1.283 1.444-1.88 2.213-.654.73-1.033 1.646-1.54 2.476-.265.41-.483.846-.68 1.294l-.62 1.33c-.775 1.8-1.31 3.704-1.66 5.634-.092.482-.21.96-.283 1.444l-.167 1.464c-.098.977-.262 1.946-.258 2.932l-.178 2.943c-.005.984.04 1.97.1 2.95l.073 1.473.155 1.468.31 2.935-.785.098z"/><path fill="#F0F3F5" d="M345.215 55.503c-.49-1.1-.65-2.21-.776-3.32-.095-1.108-.167-2.217-.117-3.323.1-2.207.19-4.415.52-6.606.71-4.365 2.125-8.62 4.21-12.53 2.067-3.914 5.073-7.39 8.81-9.785 3.706-2.467 8.15-3.623 12.543-3.78 2.2-.14 4.43.09 6.575.624 2.124.58 4.253 1.336 6.078 2.63 3.71 2.512 6.343 6.308 8.16 10.32.883 2.03 1.533 4.145 2.134 6.263.58 2.125 1.065 4.277 1.385 6.454.16 1.09.285 2.18.405 3.273.137 1.09.25 2.182.35 3.276.192 2.187.328 4.38.41 6.572l-.787.02c-.157-4.358-.41-8.727-1.225-13.004-.704-4.282-1.676-8.553-3.43-12.518-1.622-4-4.273-7.645-7.825-10.043-1.796-1.122-3.67-2.257-5.798-2.667-2.095-.482-4.252-.596-6.404-.472l-.808.007-.803.07c-.535.052-1.076.07-1.606.16-1.054.216-2.114.4-3.133.744-.52.14-1.03.296-1.525.508-.494.207-1.01.365-1.49.607l-1.446.704c-.464.268-.918.557-1.364.854-1.74 1.255-3.37 2.65-4.84 4.23-.75.778-1.37 1.666-1.998 2.545l-.906 1.346c-.29.457-.558.93-.834 1.396-1.084 1.884-1.876 3.924-2.536 5.993-.66 2.072-1.147 4.196-1.486 6.34-.373 2.137-.68 4.304-.626 6.477 0 1.085.052 2.165.16 3.236.126 1.058.313 2.145.727 3.047l-.705.348z"/><path fill="#FFF" d="M318.984 42.876h93.733l11.297 102.642H309"/><path fill="#D5DAEA" d="M318.715 42.58l11.767.01 5.885.01 5.844-.053c7.905.112 15.672.007 23.49-.06 3.91-.02 7.807-.102 11.743-.053 3.925.01 7.86.09 11.764.02 7.82-.13 15.684.045 23.51.06l.322.002.035.32c.478 4.277.904 8.56 1.425 12.83l.762 6.41.614 6.424c.192 2.143.518 4.272.76 6.41l.688 6.416L418.7 94.16c.935 8.554 1.904 17.105 2.69 25.676 1.1 8.536 1.844 17.11 2.778 25.666l.02.173h-.175c-9.585.058-19.17.042-28.754.03-4.793.002-9.586-.06-14.378-.017l-14.377.12c-9.585.032-19.17.157-28.754.034-9.584-.082-19.168.175-28.753.093l-.465-.004.052-.45c.488-4.28.807-8.58 1.232-12.87.368-4.302.92-8.563 1.37-12.838.415-4.286.784-8.593 1.274-12.853.503-4.25.697-8.637 1.224-12.876l1.328-12.82c.397-4.297.772-8.618 1.243-12.865.467-4.248.836-8.572 1.225-12.89l1.235-12.89zm.538.592l-1.24 12.79c-.432 4.246-.886 8.482-1.23 12.802-.343 4.317-.79 8.55-1.23 12.8-.403 4.27-.772 8.56-1.13 12.85-.292 4.314-.996 8.447-1.307 12.757-.325 4.297-.83 8.526-1.277 12.784-.403 4.272-.682 8.564-1.16 12.814-.42 4.26-.944 8.514-1.294 12.788l-.386-.425c9.585-.083 19.17.158 28.754.03 9.585-.185 19.17-.065 28.754-.06 4.792-.014 9.585.115 14.377.15 4.792.062 9.585-.04 14.377-.072l14.377-.065c4.79-.037 9.584.08 14.376.092l-.313.35c-.425-4.282-1.046-8.542-1.55-12.815-.61-4.262-.863-8.562-1.292-12.843-.504-4.273-1.177-8.528-1.585-12.81l-1.35-12.838-1.39-12.834-.693-6.416c-.22-2.14-.35-4.29-.618-6.425l-.772-6.408-.635-6.423c-.41-4.283-.898-8.558-1.344-12.838l.247.222h-23.39c-3.904-.035-7.784.05-11.672.07-3.878.054-7.79-.01-11.69-.02-7.8-.04-15.644-.116-23.364-.003l-5.866-.04-5.827.018-11.657.02z"/><path fill="#E6E8F0" d="M339.262 51.534c-.49-1.1-.65-2.21-.776-3.32-.094-1.108-.166-2.217-.116-3.323.1-2.206.19-4.414.52-6.605.71-4.365 2.125-8.62 4.21-12.53 2.067-3.914 5.073-7.39 8.81-9.785 3.706-2.466 8.15-3.622 12.543-3.78 2.2-.14 4.43.092 6.575.625 2.123.58 4.252 1.336 6.077 2.63 3.71 2.512 6.343 6.308 8.16 10.32.883 2.03 1.533 4.145 2.134 6.263.578 2.125 1.064 4.277 1.384 6.454.16 1.088.285 2.18.405 3.272.136 1.09.25 2.182.35 3.276.19 2.188.327 4.38.41 6.573.007.217-.162.4-.38.408-.217.01-.4-.16-.408-.378v-.008c-.157-4.36-.41-8.728-1.225-13.005-.704-4.283-1.676-8.554-3.43-12.52-1.622-4-4.273-7.644-7.825-10.042-1.796-1.122-3.67-2.257-5.798-2.667-2.095-.48-4.252-.595-6.404-.47l-.808.006-.803.07c-.536.052-1.077.07-1.607.16-1.054.216-2.114.4-3.133.744-.52.14-1.03.297-1.525.51-.494.206-1.01.364-1.49.606l-1.446.704c-.465.27-.92.558-1.365.855-1.74 1.255-3.37 2.65-4.84 4.23-.75.778-1.37 1.666-1.997 2.545l-.906 1.347c-.29.457-.558.93-.834 1.396-1.084 1.884-1.876 3.924-2.536 5.993-.66 2.072-1.147 4.196-1.486 6.34-.373 2.137-.68 4.304-.626 6.477 0 1.085.052 2.165.16 3.236.126 1.057.313 2.144.727 3.046l.012.027c.09.197.003.43-.194.522-.197.09-.43.004-.522-.193 0-.005-.002-.008-.002-.008z"/><g><path fill="#D9DDEC" d="M337.127 50.606c-.373.702-.333 1.605.01 2.336.303.76 1.108 1.28 1.965 1.282.846.01 1.664-.284 2.232-.92.284-.32.453-.73.534-1.143.085-.41.124-.833.046-1.24-.047-.245.113-.48.357-.528.237-.045.465.102.523.333l.005.022c.27 1.09-.037 2.286-.786 3.115-.687.89-1.887 1.365-2.972 1.208-1.075-.12-2.15-.724-2.684-1.716-.27-.487-.36-1.045-.36-1.588-.003-.548.115-1.095.356-1.622.104-.226.37-.325.597-.222s.324.37.22.597c-.002.007-.006.014-.01.02l-.033.066z"/></g><g><path fill="#D9DDEC" d="M387.805 50.545c-.543.662-.94 1.477-.82 2.166.072.706.86 1.337 1.672 1.41.808.093 1.66-.113 2.222-.674.282-.285.437-.684.49-1.074.058-.39.047-.784-.097-1.134-.095-.23.015-.493.245-.588.223-.092.477.008.58.223l.007.016c.5 1.057.22 2.343-.572 3.142-.76.863-1.978 1.173-3.022.923-.53-.107-1.018-.358-1.45-.68-.428-.324-.8-.8-.934-1.373-.143-.575.017-1.148.225-1.623.205-.49.488-.92.79-1.342.143-.203.424-.25.627-.106.203.144.25.425.106.628l-.018.024-.05.06z"/></g><g><path fill="#FFF" d="M116.22 86.05c.026 19.37.028 40.69.054 60.06 25.845-.29 51.69-.583 77.535-.874l3.916-60.438-81.505 1.252z"/><path fill="#D9DCEC" d="M116.507 86.33l.006 7.46c-.004 2.483-.027 4.956.032 7.483.05 2.52-.032 4.953-.03 7.445l.08 7.504c.06 5.003.174 9.997.088 14.952-.05 2.48.003 4.98.036 7.47.055 2.49.01 4.975-.013 7.466l-.437-.432c6.462-.002 12.924-.005 19.384-.21 1.615-.024 3.23.022 4.847.033 1.617.024 3.23-.115 4.846-.106l9.692-.07c6.462-.026 12.922-.197 19.385-.074 6.46-.27 12.924-.024 19.384-.183l-.167.158c.28-5.04.628-10.075.96-15.11.33-5.037.738-10.07.945-15.113l.84-15.118c.225-5.043.786-10.064 1.018-15.107l.327.343-10.146.274-5.08.025-5.07.108c-3.368.108-6.772.054-10.178.044l-5.07.1-5.103.008c-1.684.047-3.35.132-5.043.15l-5.112.008-5.096.047-5.05.117c-6.87-.025-13.49.264-20.275.33zm-.57-.56c6.785-.156 13.727-.1 20.42-.38l5.14-.045 5.087-.127 5.074-.166c1.707-.03 3.45.022 5.168.03l5.088-.15 5.14-.005c3.395-.093 6.783-.25 10.21-.23l5.123-.028 5.106-.13 10.227-.07.36-.002-.028.352c-.408 5.03-.426 10.088-.85 15.118-.37 5.034-.642 10.074-1.097 15.102-.2 2.516-.457 5.028-.568 7.55l-.398 7.56c-.295 5.04-.55 10.08-.994 15.11l-.028.322-.306-.005c-6.463-.108-12.918.573-19.384.217-6.458.38-12.92.24-19.383.32l-9.692.083c-1.615.035-3.232-.085-4.847-.038-1.615.035-3.23.107-4.845.114-6.462-.073-12.923.01-19.384.095l-.258.002-.002-.26c-.047-5.026.054-10.033-.04-15.07-.11-5.048-.03-10.063-.004-15.074l.038-7.518c-.01-2.514-.095-5.082-.057-7.573.046-2.483.014-5.016.002-7.542l-.02-7.565z"/><path fill="#F4F6F8" d="M123.16 106.902c.36.32 14.42.776 20.934.533.195-5.244.674-10.48 1.435-15.676-4.967.563-22.526.792-22.526.792s-.288 13.953.157 14.35z"/><path fill="#F4F6F8" d="M123.76 106.23c-.03-.063-.09-.115-.15-.14-.02-.01-.092-.02-.064-.016l.072.008.287.032.624.048 1.286.07 2.602.092 5.22.125c1.74.04 3.482.062 5.22.07 1.738 0 3.478.048 5.202.008l-.873.873c.15-2.636.343-5.27.62-7.895l.394-3.94c.145-1.31.307-2.62.487-3.93l.94.97c-1.922.216-3.795.32-5.68.426-1.883.116-3.766.128-5.647.18l-11.284.157.805-.798c-.024 2.388.013 4.782.015 7.17l.003 3.576.038 1.773.043.864.034.405.023.157.004.02s.003.012 0 0c-.013-.04-.03-.078-.05-.116-.044-.074-.105-.142-.17-.19zm-1.198 1.345c-.083-.082-.16-.183-.22-.292-.03-.054-.054-.11-.074-.165l-.016-.055-.05-.198-.046-.286-.05-.49-.062-.93-.068-1.817-.062-3.61c-.013-1.2.02-2.4.033-3.6l.076-3.6v-.02c.01-.525.444-.944.97-.94 3.75.028 7.505-.102 11.254-.192l5.62-.175c1.865-.06 3.748-.12 5.567-.278l.03-.003c.46-.04.863.3.904.757.006.07.003.14-.007.203-.405 2.578-.76 5.166-1.01 7.765-.225 2.602-.386 5.21-.462 7.818-.012.416-.345.747-.754.764h-.01c-1.765.067-3.517.114-5.27.084l-5.252-.12c-1.75-.07-3.5-.1-5.25-.13l-2.634-.067-1.33-.056-.68-.044-.364-.037c-.015.02-.547-.1-.782-.285z"/><g><path fill="#FFF" d="M195.38 120.995l-78.88.78"/><path fill="#D9DCEC" d="M195.384 121.395c-6.575-.09-13.144.4-19.72.148-.823-.025-1.644.09-2.465.1-.412-.01-.823-.072-1.235-.09-.41-.024-.82.107-1.232.074-1.643 0-3.287-.03-4.93-.007-1.643.124-3.29-.256-4.932-.004-.82-.014-1.643-.06-2.465-.09-.822-.03-1.643.02-2.465.045-1.643.036-3.287.047-4.93.022-1.644-.058-3.285.18-4.93.196-1.642.065-3.285.15-4.93.06-1.643-.037-3.284.173-4.928.16-.822-.053-1.644-.005-2.465.027-.82.057-1.644-.02-2.466-.072-1.642.037-3.286-.043-4.93.07-.82-.035-1.643-.068-2.465-.066-.82.03-1.642.11-2.465.055-.822-.045-1.644 0-2.465.07-.82.06-1.643.054-2.464.083l-.007-.8c.822.003 1.643-.028 2.465.004.822.042 1.644.054 2.465-.03.82-.098 1.643-.028 2.465-.015.822-.023 1.643-.09 2.464-.147 1.645.135 3.287-.022 4.93.075.822-.053 1.643-.144 2.465-.088.822.026 1.644.072 2.465.004 1.643-.047 3.288.096 4.93.015 1.642-.217 3.286-.172 4.93-.16 1.643-.047 3.29.28 4.932.118 1.642-.113 3.285-.2 4.93-.158.82.027 1.644.116 2.465.046.82-.052 1.64-.22 2.462-.21.41-.01.823.14 1.234.15.41.032.82-.03 1.232-.093.82-.16 1.642-.105 2.464-.088 1.644.052 3.287 0 4.93.024.412-.03.824.11 1.234.087l1.232-.082c.822 0 1.645.105 2.466.088 3.287.016 6.573-.057 9.86-.16 1.642-.01 3.287.126 4.93-.042 1.643.025 3.285-.074 4.928-.12l.012.8z"/></g></g><g><g fill="#F4F6F8"><path d="M18.11 145.905v-20.68l71.74-2.3v22.98"/><path d="M17.827 146.188l-.018-5.248.006-2.63-.062-2.598.053-5.26-.094-5.228-.007-.376.39-.02 4.48-.22c1.495-.062 2.99-.065 4.486-.09 2.99-.034 5.974-.326 8.967-.313l4.485-.065 4.484-.13c1.494-.037 2.986-.158 4.48-.217 1.494-.06 2.994.046 4.486-.063 2.986-.19 5.978-.186 8.967-.29l8.968-.256c1.497-.003 2.994.026 4.488-.038 1.494-.068 2.986-.205 4.482-.19l4.487-.05c1.495-.02 2.99-.1 4.483-.155l.176-.006.003.18c.056 3.83.006 7.66.003 11.49-.003 1.915-.06 3.83 0 5.745.03 1.914.102 3.83.11 5.744l.002.285-.29.002-9.002.096c-2.998-.048-5.982-.13-8.997-.046-3.006.04-6.04.14-9.015.038-3.002.008-6.045.097-8.992-.044-1.47-.07-2.992-.02-4.494-.022-1.51.015-2.957-.09-4.478-.047-3.09.153-5.97-.06-8.976-.04l-4.53.037-4.458-.054-4.562.067-4.513.01zm.565-.566l4.466-.007 4.424.043 4.534-.092 4.438.03c2.973.014 6.097-.255 8.95-.044 1.455.06 3.01-.075 4.478-.038 1.478.016 2.928.104 4.445.035 3.025-.13 5.953-.02 8.925 0 3-.09 5.95-.005 8.926.02 2.966.072 5.966-.05 8.946-.132l8.925.048-.42.418c-.012-1.915.097-3.83.133-5.745.08-1.916.013-3.83-.03-5.746l-.07-5.745c-.03-1.916-.046-3.83.02-5.746l.376.364c-1.496.03-2.993.007-4.486.102l-4.48.293c-.745.053-1.492.102-2.24.088-.75-.015-1.5-.082-2.247-.072-1.495.03-2.986.183-4.48.3-2.986.163-5.98.11-8.968.23-2.99.057-5.978.226-8.972.19-1.497-.032-2.987.155-4.483.182-1.495.028-2.992 0-4.487.04-2.99.062-5.98.154-8.968.267-2.988.132-5.98.14-8.967.308-1.494.08-2.987.175-4.48.218l-4.486.1.3-.31-.058 5.122.068 5.085-.048 2.57.015 2.537-.003 5.085z"/></g><path fill="#FFF" d="M14.69 115.432v9.792h78.37l-1.208-9.08"/><path fill="#D5DAEA" d="M14.972 115.716c.024 1.59.056 3.176.054 4.752l-.01 2.37.062 2.386-.388-.388c6.53.27 13.06-.29 19.592-.015 1.633-.02 3.265-.093 4.898-.066l4.898.084c3.265.063 6.53.033 9.796-.043 6.53.054 13.06.102 19.592.1 1.633.016 3.265.127 4.898.124 1.633-.04 3.265-.11 4.898-.04 1.633.027 3.265.09 4.898.093l4.898-.047-.196.224-1.183-9.083.17.15c-3.21-.1-6.42-.01-9.62.017-3.205-.002-6.397.043-9.6 0l-4.823-.126-4.784.033c-1.597 0-3.17.062-4.79-.007-1.618-.07-3.21-.056-4.8-.05-6.448-.17-12.835-.195-19.286-.33-3.262-.11-6.35.013-9.635-.12-1.627-.046-3.177.002-4.756.01l-4.784-.027zm-.563-.57l4.844.043c1.63.027 3.288.097 4.864.065 3.114-.12 6.48.087 9.63.01 3.11-.172 6.533.173 9.67.043 1.63.04 3.285.14 4.863.078l2.396-.04 2.436.05c3.27.14 6.437-.01 9.702.13l4.853.093 4.813-.095c3.224-.012 6.464.082 9.692.12 3.236.08 6.46.31 9.682.197l.252-.01.046.273c.254 1.506.45 3.02.673 4.53.213 1.512.446 3.02.642 4.535l.06.476-.47-.01-4.897-.104c-1.633-.006-3.265.106-4.898.145-.816.015-1.633.09-2.45.04-.815-.027-1.632-.154-2.448-.156-1.633-.003-3.265.154-4.898.184-6.53-.096-13.06-.105-19.592-.132-6.53-.236-13.06-.08-19.592-.14-6.53.303-13.06-.17-19.592.102l-.357.015.007-.367.047-2.506-.017-2.524c-.008-1.688.018-3.368.04-5.046z"/></g><g><g fill="#F4F6F8"><path d="M23.843 115.272v-20.68l71.74-2.3v22.98"/><path d="M23.56 115.555l-.018-5.248.007-2.63-.063-2.598.053-5.26-.094-5.23-.007-.375.39-.02 4.48-.22c1.494-.062 2.99-.065 4.485-.09 2.99-.034 5.974-.326 8.967-.313l4.486-.065 4.484-.13c1.495-.037 2.987-.158 4.48-.217 1.495-.06 2.995.046 4.487-.063 2.985-.19 5.977-.186 8.966-.29l8.968-.256c1.496-.002 2.993.027 4.487-.037 1.495-.068 2.987-.205 4.483-.19l4.487-.05c1.496-.02 2.99-.1 4.483-.155l.176-.007.002.18c.057 3.83.007 7.66.004 11.49-.003 1.916-.06 3.83 0 5.746.03 1.915.102 3.83.11 5.745l.002.286-.29.003-9.002.095c-2.998-.048-5.982-.13-8.997-.046-3.007.038-6.04.14-9.016.037-3.003.008-6.046.097-8.993-.044-1.47-.07-2.99-.02-4.493-.022-1.51.016-2.957-.088-4.478-.046-3.09.153-5.97-.06-8.977-.04l-4.53.037-4.458-.053-4.562.067-4.513.01zm.566-.566l4.466-.008 4.424.043 4.534-.092 4.438.03c2.973.014 6.097-.255 8.95-.044 1.455.06 3.01-.076 4.478-.04 1.478.017 2.928.105 4.445.036 3.026-.13 5.954-.02 8.926.002 3-.09 5.95-.006 8.926.018 2.966.073 5.966-.05 8.946-.13l8.925.047-.418.418c-.013-1.914.096-3.83.132-5.744.08-1.915.013-3.83-.03-5.745l-.07-5.744c-.03-1.915-.046-3.83.022-5.745l.374.365c-1.495.03-2.992.007-4.485.102l-4.48.293c-.746.053-1.493.102-2.24.088-.75-.016-1.5-.083-2.247-.073-1.495.03-2.986.183-4.48.3-2.986.163-5.98.11-8.968.23-2.99.057-5.977.226-8.97.19-1.498-.032-2.988.155-4.484.182-1.494.028-2.99 0-4.486.04-2.99.062-5.98.154-8.968.267-2.988.132-5.98.14-8.967.308-1.495.08-2.988.175-4.482.218l-4.485.1.3-.31-.058 5.122.07 5.085-.05 2.57.016 2.537-.004 5.085z"/></g><path fill="#FFF" d="M20.424 84.798v9.793h78.368l-1.207-9.08"/><path fill="#D5DAEA" d="M20.705 85.083c.024 1.59.056 3.176.054 4.752l-.01 2.37.06 2.386-.387-.387c6.53.27 13.06-.29 19.592-.015 1.633-.022 3.265-.094 4.898-.067l4.898.085c3.266.063 6.532.033 9.797-.043 6.53.054 13.06.102 19.592.1 1.632.016 3.264.127 4.897.124 1.633-.038 3.265-.11 4.898-.04 1.633.028 3.265.092 4.898.094l4.898-.047-.195.224-1.183-9.083.17.15c-3.21-.1-6.42-.01-9.62.017-3.204 0-6.396.044-9.6 0l-4.822-.125-4.784.033c-1.597 0-3.17.06-4.79-.008-1.618-.07-3.21-.056-4.8-.05-6.448-.17-12.835-.195-19.286-.33-3.262-.11-6.35.013-9.635-.12-1.627-.046-3.177.002-4.756.01l-4.785-.027zm-.563-.57l4.845.043c1.63.028 3.288.098 4.864.066 3.115-.12 6.48.087 9.632.01 3.108-.172 6.532.173 9.67.043 1.63.04 3.284.14 4.862.078l2.395-.04 2.435.05c3.27.14 6.437-.01 9.702.13l4.853.093 4.813-.094c3.224-.012 6.464.082 9.692.12 3.236.08 6.46.31 9.682.197l.252-.01.045.272c.254 1.506.45 3.02.673 4.53.213 1.512.446 3.02.642 4.535l.06.476-.47-.01-4.897-.104c-1.633-.007-3.265.105-4.898.144-.816.015-1.633.09-2.45.04-.815-.027-1.632-.154-2.448-.156-1.633-.004-3.265.153-4.898.183-6.532-.095-13.062-.104-19.593-.13-6.53-.237-13.06-.08-19.592-.142-6.53.304-13.06-.17-19.592.103l-.357.016.007-.365.047-2.505-.017-2.524c-.008-1.688.02-3.37.04-5.046z"/></g><g><path fill="#D5DAEA" d="M9.5 145.7c10 .03 20 .17 30 .06l7.5.123c2.5.032 5-.05 7.5-.067l15-.2c2.5-.017 5-.1 7.5-.064l7.5.093c5 .14 10-.043 15-.084 10-.027 20 .294 30 .235 5 .07 10-.154 15-.145l7.5.197c2.5.016 5-.16 7.5-.124l30 .11c5 .02 10-.048 15 .143 2.5.038 5 .156 7.5.108l7.5-.137c5 .03 10 .146 15 .22 5 .078 10-.006 15-.038 5-.066 10-.004 15-.012 5 .008 10 .007 15 .066 10 .15 20-.297 30-.294l15-.135 3.75-.028 3.75.05 7.5.093c10 .105 20-.283 30-.224 2.5.01 5 .116 7.5.068l7.5-.072c5-.097 10 .07 15 .193 2.5.06 5 0 7.5-.003l3.75-.027 3.75.074c5 .217 10-.223 15-.09l7.5.13 7.5.054c5-.045 10-.188 15-.062 2.5.014 5 .097 7.5.046l7.5-.138c5-.103 10-.073 15-.116.442-.004.803.35.807.793.004.442-.35.803-.793.807h-.014c-5-.023-10 .023-15-.056l-7.5-.096c-2.5-.036-5 .076-7.5.108-5 .178-10 .02-15-.02l-7.5.086c-2.5.045-5 .143-7.5.158-10-.305-20-.024-30-.248-5 .09-10 .256-15 .126l-7.5-.106c-2.5-.06-5 .037-7.5.048-10 .073-20-.288-30-.1l-7.5.16-3.75.082-3.75-.012-15-.075-7.5-.038-7.5-.17-7.5-.156c-2.5 0-5 .037-7.5.068-5 .123-10 .147-15 .186l-7.5.06-3.75.03-3.75-.058-7.5-.12c-2.5-.02-5-.1-7.5-.02-5 .09-10 .41-15 .37-2.5.01-5-.298-7.5-.326-2.5-.074-5 .05-7.5.157-5 .298-10 .193-15 .134-10-.135-20-.093-30-.15-2.5.017-5-.19-7.5-.196l-7.5.143c-5-.017-10-.242-15-.225-20-.097-40-.016-60 .127l-15-.118c-2.5-.007-5-.07-7.5-.032l-7.5.135c-10-.076-20 .09-30 .142-.442.002-.802-.354-.804-.796-.002-.442.354-.802.796-.804H9.5z"/></g><g><path fill="#F4F6F8" d="M309.375 146.275l-.18-43.816 75.41-1.708-.88 44.28"/><path fill="#FFF" d="M349.32 101.58l-.86 43.663"/><path fill="#E6E8F0" d="M349.72 101.587c-.21 3.636.138 7.283-.263 10.915-.053.454.074.91.048 1.366-.006.227-.108.453-.117.68-.028.227.09.457.052.684-.02.91-.102 1.818-.11 2.728.09.912-.324 1.814-.106 2.728-.005.455-.108.908-.146 1.362-.036.454-.01.91 0 1.365 0 .91-.023 1.82-.082 2.728-.088.908.102 1.822.106 2.732.026.91.092 1.822-.068 2.73-.06.908.116 1.82.077 2.73-.093.454-.04.91-.023 1.366.043.457-.056.91-.133 1.363.016.91-.118 1.818-.027 2.73-.04.454-.124.908-.12 1.363.016.455.077.912.005 1.365-.08.454-.024.91.02 1.366.036.456.04.91.03 1.366l-.8-.016c0-.455.01-.91.055-1.364.055-.454.11-.908.02-1.365-.088-.457.006-.91.04-1.364.013-.455-.06-.91-.106-1.367.2-.906.036-1.82.193-2.726-.043-.456-.125-.912-.047-1.366.044-.454.13-.907.056-1.364-.012-.91.187-1.816.124-2.728-.183-.914-.104-1.822-.058-2.73.035-.455.05-.91.148-1.363.097-.454.132-.908.073-1.365-.084-.912-.12-1.822-.067-2.73.06-.455.16-.908.108-1.364-.037-.455-.183-.913-.162-1.367.01-.227.153-.452.188-.68.025-.226-.017-.454-.076-.683-.142-.458-.072-.91-.036-1.366.085-.908.07-1.82.126-2.728-.02-.228.124-.453.115-.68.01-.227-.072-.456-.062-.684.006-.455.15-.907.14-1.362.085-1.818.08-3.64.045-5.46l.086-1.362c.046-.454.043-.91-.032-1.366.073-.91-.002-1.82-.01-2.73l.797.015z"/><path fill="none" stroke="#F0F3F5" stroke-miterlimit="10" d="M347.14 92.852c-2.563-4.406-7.022-7.666-11.998-8.772-2.01-.446-4.176-.54-6.066.275s-3.41 2.71-3.31 4.765c.103 2.055 2.22 3.916 4.2 3.352"/><path fill="none" stroke="#F0F3F5" stroke-miterlimit="10" d="M346.668 92.676c3.723-5.655 9.53-9.905 16.045-11.745 1.667-.47 3.553-.762 5.05.106 1.566.907 2.258 2.936 1.918 4.713-.338 1.776-1.546 3.292-2.995 4.375-1.45 1.083-3.14 1.79-4.81 2.485"/><path fill="#FFF" d="M306.393 93.396l.516 10.31 80.423-1.288.773-10.053"/><path fill="#E6E8F0" d="M306.685 93.67c.11 1.676.225 3.346.307 5.007l.117 2.5.188 2.51-.395-.37c6.707.176 13.4-.514 20.106-.33 1.674-.053 3.35-.134 5.024-.158h5.028c3.352.005 6.703-.04 10.053-.188 1.675-.07 3.354.123 5.027-.018 1.674-.097 3.35-.055 5.026-.09l10.054-.124c1.675-.052 3.352.025 5.028.03 1.676.03 3.35-.134 5.026-.132l5.028.028c1.676.003 3.35-.056 5.026-.097l-.177.165c.1-1.678.24-3.352.372-5.028l.4-5.025.183.195c-1.7.015-3.4 0-5.1.04l-5.088.175-10.164.24-5.11-.022c-1.7.01-3.38.084-5.07.122-1.692.037-3.362.127-5.067.12l-2.562-.017-2.53.06-20.42.118c-3.463-.046-6.73.15-10.208.09-1.728-.013-3.367.073-5.04.115l-5.065.082zm-.583-.547l5.13-.067c1.723-.01 3.483.026 5.146-.048 3.3-.188 6.866-.052 10.196-.213l20.51-.293 2.58.01 2.55-.076c1.698-.05 3.43-.014 5.14-.025 1.712-.014 3.433.01 5.134-.04l5.094-.21 10.267-.073 5.134.084c1.708.006 3.41-.072 5.118-.135l.356-.013-.024.367-.33 5.03-.166 2.515c-.042.84-.152 1.674-.228 2.51l-.032.35h-.338c-1.676 0-3.353-.05-5.027.026l-5.024.252c-1.675.114-3.356-.21-5.03-.055-1.675.068-3.348.262-5.024.242-3.352-.01-6.703.02-10.054.068-3.35.078-6.705-.06-10.054.11-6.706-.118-13.405.153-20.108.19-6.697.425-13.407.038-20.104.43l-.346.02-.01-.355-.083-2.64-.15-2.653c-.098-1.774-.158-3.543-.225-5.307z"/><g><path fill="#FFF" d="M346.71 93.486l-.275 9.602"/><path fill="#F0F3F5" d="M347.103 93.498c.022.4-.14.797.047 1.203.04.402-.064.8-.084 1.2-.025.4-.095.798-.18 1.196-.034.2-.006.4-.042.6-.04.198-.06.398-.036.6.002.2-.037.398-.04.598-.053.2.11.404.082.603l.06 1.203c-.102.397-.055.8-.075 1.2-.145.395-.018.8-.007 1.2l-.787-.022c-.03-.4.052-.8-.074-1.203.003-.4.108-.798.118-1.198.158-.396.04-.8.012-1.2-.082-.204.186-.396.092-.6-.037-.2-.13-.403-.115-.603.115-.797.047-1.6.283-2.394.134-.397-.032-.802-.036-1.202.137-.396-.03-.802-.005-1.2l.788.02z"/></g></g><g><path fill="#FFF" d="M432.234 145.702l-.237-41.316 49.31-1.692-.52 43.55"/><path fill="#E6E8F0" d="M431.95 145.984l-.025-5.215v-2.615l-.073-2.563c0-1.745.056-3.518.017-5.234l-.128-5.16c-.034-1.724-.107-3.44-.11-5.182-.002-1.742.054-3.492.024-5.223-.132-3.45-.097-6.94-.04-10.405l.006-.377.362-.005c2.056-.035 4.11-.117 6.164-.184 2.052-.133 4.105-.247 6.164-.206 1.03.04 2.053-.11 3.08-.15l3.082-.086 6.165-.173 6.163-.205c2.056-.036 4.116.053 6.167-.12 2.05-.164 4.11-.127 6.165-.168 2.057-.002 4.11-.107 6.164-.196l.183-.008v.188c.003 3.63-.082 7.258-.13 10.887-.123 3.628-.038 7.26-.023 10.89-.027 3.628.058 7.26-.06 10.887-.15 3.628-.088 7.258-.068 10.888l.002.398-.423.013c-2.038.064-4.067-.104-6.104-.087-2.034-.017-4.09.052-6.108-.07-1.014-.034-2.017-.105-3.034-.117l-3.057-.014-3.03-.096c-1.013-.023-2.053.025-3.08.03-2.04-.014-4.028-.136-6.06-.16-2.008-.062-4.11.022-6.11-.055l-3.018-.08-3.09.014c-2.075.022-4.09-.028-6.14-.04zm.568-.565c2.005.024 4.04.014 6.02.07l2.99.06 3.07-.04c2.055-.055 3.986.09 6.028.058 2.016.013 4.08-.09 6.077-.05.99.036 1.963.13 2.973.13 1.01-.004 2.032-.047 3.034-.03l2.994.102c1.002.026 2.02-.02 3.028-.026 1.012-.028 2.017-.026 3.017.014l3.007.085c2.008.075 4.027-.045 6.035.054l-.4.39c.097-3.628.222-7.257.11-10.888-.056-1.817-.004-3.63.03-5.445l.1-5.443c.085-3.63.352-7.255.232-10.886-.025-1.815-.002-3.63-.006-5.445.003-1.814-.013-3.63.076-5.443l.385.377c-2.057.032-4.114.023-6.165.21l-3.078.21c-1.026.084-2.053.11-3.084.043-1.03-.08-2.057-.014-3.083.07l-3.077.246c-2.054.086-4.11.09-6.166.144l-6.164.185-3.082.093c-1.027.02-2.06-.076-3.084.024-2.052.156-4.108.178-6.165.173l-6.164.168.24-.25.054 10.284c.013 1.713.092 3.41.12 5.112.026 1.703-.01 3.428-.013 5.144l-.032 5.16c-.008 1.724.068 3.395.09 5.092l-.03 2.594.037 2.546.046 5.107z"/><g><path fill="#E6E8F0" d="M456.086 103.656c-.138 3.52.283 7.042-.047 10.562-.045.44.09.88.074 1.32 0 .22-.1.44-.103.66-.023.22.1.44.066.66-.003.88-.066 1.76-.056 2.64.108.88-.288 1.76-.053 2.642.004.44-.09.88-.12 1.32-.027.44.007.88.025 1.32.02.88.013 1.76-.028 2.64-.07.88.138 1.76.16 2.642.044.88.128 1.76-.015 2.64-.044.88.15 1.76.13 2.642-.086.44-.023.88 0 1.32.053.44-.038.88-.105 1.32.034.88-.082 1.76.026 2.64-.03.44-.106.88-.09 1.32.023.44.093.88.03 1.32-.07.44-.006.88.046 1.32.046.44.06.88.058 1.32h-.8c-.008-.44-.006-.88.028-1.32.046-.44.092-.88-.008-1.32-.096-.44-.01-.88.014-1.32.004-.44-.077-.88-.133-1.32.18-.88 0-1.76.14-2.64-.053-.44-.144-.88-.075-1.32.035-.44.113-.88.03-1.32-.03-.88.15-1.76.07-2.64-.2-.88-.14-1.76-.112-2.642.027-.44.033-.88.12-1.32.09-.44.115-.88.047-1.32-.1-.88-.156-1.76-.12-2.64.05-.44.143-.88.082-1.32-.047-.44-.202-.88-.19-1.32.006-.22.145-.44.175-.66.02-.22-.026-.44-.09-.66-.15-.44-.09-.88-.062-1.32.068-.88.033-1.76.072-2.642-.026-.22.115-.44.1-.66.007-.22-.08-.44-.075-.66-.003-.44.132-.88.115-1.32.05-1.76.008-3.52-.063-5.28l.058-1.32c.037-.44.025-.88-.058-1.32.055-.88-.038-1.76-.064-2.642h.8z"/></g></g><g><path fill="#00084B" d="M344.134 210.13l.088 3.713c-.006 1.238.003 2.475-.015 3.713l-.97-.974 4.216.17c1.405.084 2.81-.016 4.216-.017 1.404-.015 2.81-.095 4.215-.037l4.216.115-.808.806c-.01-.625.004-1.25-.027-1.874l-.074-1.873c-.025-.624-.007-1.248-.013-1.873-.004-.624 0-1.248.02-1.872.017-.498.433-.888.93-.87.47.015.843.385.87.844l.002.026c.035.624.055 1.248.068 1.872.01.624.046 1.248.037 1.873-.006 1.248-.018 2.497-.07 3.745l-.037.94-.904-.002-4.216-.012c-1.405.012-2.81-.077-4.216-.118-1.405-.028-2.81-.134-4.216-.096l-4.216.043-.835.01.018-.83.08-3.713c.005-.62-.036-1.238-.052-1.857-.013-.62-.046-1.238-.107-1.857-.05-.496.313-.938.81-.987.495-.05.937.312.986.807l.003.066v.117zM155.134 209.27l.088 3.712c-.006 1.238.003 2.475-.015 3.713l-.97-.974 4.216.17c1.405.085 2.81-.015 4.216-.016 1.404-.015 2.81-.095 4.215-.037l4.216.115-.808.806c-.01-.624.004-1.248-.027-1.872l-.074-1.873c-.025-.624-.007-1.248-.013-1.873-.004-.624 0-1.248.02-1.873.017-.498.433-.888.93-.87.47.015.843.385.87.844l.002.027c.035.624.055 1.248.068 1.873.01.624.046 1.248.037 1.873-.006 1.248-.018 2.497-.07 3.745l-.037.94-.904-.002-4.216-.012c-1.405.012-2.81-.077-4.216-.118-1.405-.028-2.81-.134-4.216-.096l-4.216.043-.835.01.018-.83.08-3.713c.005-.62-.036-1.238-.052-1.857-.013-.62-.046-1.238-.107-1.857-.05-.496.313-.938.81-.987.495-.05.937.312.986.807l.003.066v.116z"/><path fill="#2A3375" stroke="#2A3375" stroke-width="1.5" stroke-linecap="round" stroke-linejoin="round" stroke-miterlimit="10" d="M143.506 160.113h227.402v50.67H143.506z"/><path fill="#00084B" d="M360.747 200.845l-12.94-.02c-4.313-.008-8.68-.084-12.898.02l-3.196.043-3.258-.036-6.51-.07c-4.336-.043-8.553.074-12.84.105l-12.818.158c-2.143.018-4.265.074-6.427.062l-6.49-.05c-8.735-.247-17.107.257-25.817.06l-12.97-.136-12.92-.028c-4.308-.02-8.57.134-12.87.16-2.156-.015-4.324-.086-6.486-.132l-3.24-.07-3.213.076c-2.136.084-4.293.06-6.446.05l-6.458-.026-12.912-.053-12.904-.01c-4.3-.003-8.603.01-12.902-.14l-.538-.02.012-.507.087-3.708c.036-1.236.058-2.472.014-3.708l-.14-7.415.262-14.83.004-.303.298-.002 12.872-.076c4.29-.052 8.58-.002 12.872-.007 4.29.015 8.58-.004 12.872.052 4.29.04 8.58.062 12.872-.036 17.162-.34 34.325-.444 51.487-.264l12.872-.184c2.144-.017 4.29-.1 6.435-.062l6.436.095 12.873-.107c4.29 0 8.58.237 12.872.244l6.436-.043c2.146-.038 4.292.074 6.437.09 4.29.155 8.58-.29 12.872-.11l6.435.122 6.436.05c4.292.004 8.582-.18 12.873-.08l.625.014-.008.603-.104 7.512.1 7.572c.085 5.086-.024 10.102-.05 15.14zm-1.132-1.132c-.04-4.864-.166-9.74-.108-14.544l.05-7.256-.17-7.297.793.794c-4.29.145-8.58-.067-12.872-.05l-6.436.08c-2.145.042-4.29.134-6.436.15-4.29.244-8.58-.392-12.872-.18-2.145.01-4.29.15-6.436.078l-6.436-.133c-4.29-.05-8.58.19-12.872.17l-12.872-.17c-8.58.226-17.162-.078-25.743-.088-17.162.31-34.325.397-51.487-.06-4.29-.144-8.58-.084-12.872.006-4.29.116-8.58.108-12.872.157l-6.436.055c-2.145.022-4.29.05-6.436-.015-4.29-.083-8.58-.163-12.872-.186l.605-.605.074 3.707.146 3.708.136 3.708.06 3.708c.013 2.473-.24 4.944-.33 7.416-.1 2.472.04 4.943.15 7.415l-.842-.84c4.278-.213 8.547-.248 12.826-.164 4.276.036 8.558.115 12.835.116l12.836.044 6.418.023c2.14.005 4.275-.004 6.435.102l3.23.106 3.2-.045c2.132-.03 4.257-.09 6.395-.092 4.287.045 8.61.202 12.895.217l12.866.07 12.838-.016c8.53-.06 17.208.167 25.65-.06l6.376-.07c2.127-.02 4.29.022 6.434.03l12.896.097c4.287.014 8.635.106 12.876.054l6.357-.077 3.176-.04 3.233.033c4.35.087 8.562.008 12.822-.008l12.79-.045z"/><path fill="#FFF" d="M175.398 150.04H347.27c4.154 0 7.553-2.938 7.553-6.623l-21.13-79.893-1.17-3.277c0-3.62-3.4-6.625-7.554-6.625H188.52c-4.19 0-7.553 3.004-7.553 6.625l-.83 3.277-12.255 79.893c0 1.637.642 3.07 1.737 4.23 1.397 1.435 3.474 2.392 5.778 2.392z"/><path fill="#00084B" d="M175.398 149.24l22.877.117c7.626-.29 15.25.235 22.877.025l22.877-.285c7.625-.057 15.25.285 22.876.06l5.72-.074c1.905-.014 3.812.03 5.718.04l11.44.138c3.812.072 7.625.06 11.438.07l5.72.01c1.905 0 3.812-.06 5.718-.085l5.72-.076 5.718.125c3.813.207 7.626-.078 11.44-.043l11.438.05c1.793.047 3.533-.453 4.906-1.524 1.366-1.05 2.266-2.67 2.265-4.37l.022.172c-1.733-6.665-3.553-13.307-5.227-19.988-.792-3.352-1.588-6.703-2.43-10.042-.928-3.316-1.903-6.62-2.793-9.947l-2.485-10.028c-.823-3.344-1.637-6.69-2.56-10.008-1.79-6.65-3.645-13.283-5.36-19.953l.01.03-1.165-3.278-.023-.064v-.066c.005-1.55-.707-3.058-1.832-4.144-1.117-1.102-2.618-1.804-4.182-2.022-.77-.127-1.587-.097-2.423-.108l-2.48-.02-4.96-.025-4.96-.013-4.96.058-9.92.142-19.84.174-9.92.076-4.96.033-4.96-.055c-13.227-.262-26.453.04-39.68.17l-9.92-.104c-3.307-.02-6.613.046-9.92.063l-4.96.03-2.48.016c-.413.002-.827.01-1.24-.003-.374.01-.745.003-1.113.06-1.474.163-2.905.788-3.985 1.798-1.088.998-1.795 2.398-1.833 3.877l-.003.09-.017.068c-.282 1.09-.547 2.187-.82 3.28l.01-.06c-.524 3.326-.915 6.673-1.53 9.986-.58 3.32-1.15 6.64-1.536 9.987-.762 6.697-2.18 13.294-3.158 19.96-1.105 6.644-1.823 13.348-3.035 19.976-1.19 6.632-1.912 13.335-2.9 19.998l.01-.112c-.01 1.63.822 3.19 2.118 4.213 1.298 1.05 2.98 1.617 4.65 1.61zm0 1.6c-2.03-.005-4.057-.7-5.64-1.994-.796-.644-1.477-1.464-1.944-2.395-.478-.93-.718-1.99-.718-3.032v-.06l.01-.06c1.026-6.657 2.32-13.273 3.108-19.966.757-6.698 2.13-13.302 3.034-19.978 1.055-6.652 1.58-13.386 2.96-19.99.718-3.296 1.098-6.645 1.557-9.982l.335-2.504.426-2.49.856-4.98.008-.048.006-.023c.293-1.088.597-2.174.88-3.265l-.02.174c-.037-1.87.794-3.7 2.094-4.992 1.294-1.314 3.024-2.145 4.828-2.423.45-.083.91-.1 1.36-.124.414-.012.828-.002 1.24 0l2.48.026 4.96.05c3.308.03 6.614.11 9.92.098l9.92-.097c13.228.102 26.454.363 39.68-.015l4.96-.092 4.96.014 9.92.042c6.614.05 13.228.01 19.84.13l9.92.192 4.96.08 4.96-.044 4.96-.064 2.48-.04 1.24-.022c.44.01.892.007 1.332.08 1.77.232 3.485 1.008 4.794 2.275 1.314 1.243 2.2 3.04 2.207 4.924l-.043-.253 1.196 3.27.01.027.01.035c.88 3.328 1.864 6.63 2.663 9.98l2.49 10.028c1.562 6.71 3.84 13.232 5.64 19.88.952 3.31 1.43 6.744 2.3 10.076.868 3.332 1.957 6.606 2.947 9.906 1.008 3.295 1.81 6.645 2.657 9.982l2.547 10.01.03.116v.115c.01 2.22-1.174 4.32-2.86 5.61-1.67 1.328-3.854 1.925-5.883 1.873l-11.44-.035c-3.812.007-7.625-.324-11.438-.142l-5.72.092-5.718-.096c-15.25-.313-30.503-.095-45.754-.18-7.626-.095-15.25.223-22.877.208l-22.877-.168c-7.626-.16-15.25.338-22.877.09l-22.875.173z"/><path fill="#F4F6F8" d="M170.815 148.332h176.44c1.474 0 2.87-.41 4.042-1.024.83-.75 1.66-1.57 2.53-2.39 0 0 .038 0 .038-.068.604-.89.944-1.98.944-3.14l-21.13-79.894-1.17-3.277c0-3.622-3.4-6.626-7.554-6.626h-69.848c-1.704 3.897-3.372 7.922-5.048 11.965-.31.75 5.227 1.5 4.915 2.25-5.048 12.15-10.25 24.273-16.828 33.378-10.537 14.614-23 27.517-35.387 35.85-1.663 1.132-4.584 4.47-7.17 5.588-1.423.614-8.146-1.004-9.702-.37-5.513 2.25-11.542 4.683-15.79 7.688.226.068.49.068.717.068z"/><path fill="#00084B" d="M175.398 149.24l22.877.117c7.626-.29 15.25.235 22.877.025l22.877-.285c7.625-.057 15.25.285 22.876.06l5.72-.074c1.905-.014 3.812.03 5.718.04l11.44.138c3.812.072 7.625.06 11.438.07l5.72.01c1.905 0 3.812-.06 5.718-.085l5.72-.076 5.718.125c3.813.207 7.626-.078 11.44-.043l11.438.05c1.793.047 3.533-.453 4.906-1.524 1.366-1.05 2.266-2.67 2.265-4.37l.022.172c-1.733-6.665-3.553-13.307-5.227-19.988-.792-3.352-1.588-6.703-2.43-10.042-.928-3.316-1.903-6.62-2.793-9.947l-2.485-10.028c-.823-3.344-1.637-6.69-2.56-10.008-1.79-6.65-3.645-13.283-5.36-19.953l.01.03-1.694-4.76c-.6-1.527-1.36-3.066-2.668-3.947-1.312-.89-3-.977-4.67-.97l-5.065-.038c-6.755-.063-13.51.025-20.264.135-6.755.13-13.51.13-20.264.197l-10.133.077c-3.377.02-6.755.075-10.132.01-13.51-.263-27.018-.018-40.527.14-3.377.02-6.755-.05-10.132-.085-3.377-.046-6.755.04-10.132.052l-5.066.03-2.533.016c-.85.02-1.707-.026-2.43.036-1.512.12-2.98.752-4.104 1.755-1.127 1-1.865 2.43-1.9 3.94l-.003.09-.018.068c-.283 1.09-.548 2.187-.822 3.28l.012-.06c-.525 3.326-.916 6.673-1.532 9.986-.578 3.318-1.15 6.637-1.535 9.985-.762 6.697-2.18 13.294-3.158 19.96-1.105 6.644-1.823 13.348-3.035 19.976-1.19 6.633-1.913 13.336-2.9 20l.008-.114c-.008 1.63.823 3.19 2.12 4.213 1.298 1.05 2.98 1.617 4.65 1.61zm0 1.6c-2.03-.005-4.057-.7-5.64-1.994-.796-.644-1.477-1.464-1.944-2.395-.478-.93-.718-1.99-.718-3.032v-.06l.01-.06c1.026-6.657 2.32-13.273 3.108-19.966.757-6.698 2.13-13.302 3.034-19.978 1.055-6.652 1.58-13.386 2.96-19.99.718-3.296 1.098-6.645 1.557-9.982l.335-2.504.426-2.49.856-4.98.008-.048.006-.023c.293-1.088.597-2.174.88-3.265l-.02.174c-.04-1.91.83-3.778 2.178-5.075 1.346-1.307 3.124-2.145 4.976-2.373.96-.123 1.797-.095 2.635-.086l2.533.027 5.066.052c3.377.023 6.755.123 10.132.085 3.377-.024 6.755-.096 10.132-.082l20.264.17 5.066.034c1.69 0 3.377-.05 5.066-.075l10.132-.183c3.377-.097 6.755-.048 10.132-.04l10.132.044 10.132.043 5.066.027 5.066.104 10.132.187c3.377.07 6.755-.025 10.132-.043l5.066-.084c1.658-.056 3.622-.01 5.27 1.08 1.643 1.107 2.462 2.843 3.113 4.427l1.75 4.778.01.028.01.036c.882 3.328 1.865 6.63 2.664 9.98l2.49 10.028c1.564 6.71 3.84 13.23 5.64 19.878.953 3.31 1.43 6.745 2.3 10.077.87 3.33 1.958 6.605 2.948 9.905 1.008 3.295 1.81 6.645 2.657 9.982l2.547 10.01.03.116v.115c.01 2.22-1.174 4.32-2.86 5.61-1.67 1.328-3.854 1.925-5.883 1.873l-11.44-.034c-3.813.007-7.626-.324-11.44-.142l-5.718.09-5.72-.095c-15.25-.314-30.502-.096-45.753-.182-7.627-.094-15.252.224-22.878.21l-22.877-.17c-7.626-.16-15.25.34-22.877.092l-22.88.17z"/><g fill="#00084B"><path d="M191.864 90.577l.468.037M191.926 89.792c.01-.013.02.002.027.032-.005.19.03-.13.044-.19.028-.098.032.087.05.103.01.01.017.048.022.11.005.047.01.097.013.193 0 .044.008.02.014.012.006-.01.008.023.012.032.004.06.01.115.026.035.01-.02.015.053.024.063.004.077.04-.25.046-.207l.074-.186c.008.02.006.17.02.124.01-.02.027-.093.032-.036 0 .13.008.145.023.085l.04-.135-.125 1.57c-.01.013-.023.04-.033.042-.01 0-.022.035-.043.173-.013.046-.017-.035-.022-.093-.005-.058-.016-.046-.023-.08l-.006-.128c-.002-.042-.01-.015-.015 0l-.044.172c-.005.002-.015.06-.008-.084.007-.154 0-.115-.01-.077-.016.085-.042.294-.05.268-.002-.034.002-.145-.005-.126 0 0-.012.032-.018.042-.005.003-.01.003-.013-.024-.002-.037-.002-.092-.013-.027-.01.07-.023.158-.025.11v-.187c.002-.09-.007-.04-.01-.05l-.002-.176c0-.246-.048.106-.07.135-.01 0 0-.244-.027-.036-.014.056-.028.1-.038.11l.128-1.568z"/></g><path fill="#E7E9F1" d="M226.194 70.975l-22.002.02-2.052 15.265h23.814"/><path fill="#E7E9F1" d="M225.776 71.388l-5.455.134c-1.807.04-3.618.106-5.4.117-1.793.03-3.567.018-5.352-.003l-2.683-.03c-.892-.05-1.79-.113-2.694-.097l.51-.446c-.375 2.54-.672 5.09-1.11 7.62l-.6 3.805c-.187 1.27-.404 2.535-.54 3.812l-.31-.354 11.906-.207c1.984-.023 3.97-.116 5.954-.062 1.985.05 3.97.138 5.954.076l-.506.498c.045-4.976.164-9.885.328-14.864zm.837-.825c.038 5.174.062 10.455-.005 15.707-.005.354-.29.638-.64.643h-.013c-1.985.026-3.97.05-5.954-.042-1.984-.078-3.968-.023-5.953-.03l-11.907.034c-.338 0-.613-.272-.614-.61 0-.027.002-.06.006-.085.338-2.546.576-5.104.905-7.65l.235-1.91.316-1.9.654-3.798.01-.06c.045-.26.28-.438.538-.42.932.07 1.864.024 2.8.002l2.79.087 2.777.072c.922.027 1.872-.03 2.814-.047 1.91-.09 3.758-.024 5.636-.03l5.607.038zM262.24 70.992l-22.916.02-2.136 15.898h26.778"/><path fill="#E7E9F1" d="M261.847 71.43l-5.682.126c-1.885.037-3.773.1-5.636.108-1.872.03-3.727.013-5.592-.01l-2.802-.03c-.932-.05-1.87-.113-2.81-.097l.51-.446c-.39 2.646-.702 5.302-1.154 7.938l-.623 3.962c-.194 1.323-.418 2.64-.562 3.97l-.31-.353 13.39-.207c2.23-.024 4.462-.117 6.693-.063 2.232.05 4.464.138 6.695.076l-.503.56c-.594-5.19-1.123-10.333-1.615-15.534zm.784-.876c.69 5.373 1.376 10.835 1.985 16.285.04.356-.217.678-.575.718l-.064.004h-.01c-2.232.026-4.464.05-6.695-.042-2.23-.08-4.462-.024-6.693-.032l-13.39.035c-.337 0-.612-.273-.613-.61 0-.028.002-.06.006-.086.352-2.65.605-5.314.948-7.965l.246-1.99.327-1.98.677-3.954.01-.058c.044-.26.28-.44.54-.422.968.07 1.937.024 2.91.002l2.9.086 2.89.07c.96.027 1.945-.03 2.923-.05 1.98-.09 3.903-.028 5.854-.04l5.827.028zM223.38 116.44l-22.916.022-2.137 15.898h24.802"/><path fill="#E7E9F1" d="M222.96 116.854l-5.683.134c-1.884.04-3.77.106-5.63.117-1.868.032-3.718.02-5.58-.002l-2.796-.03c-.93-.05-1.866-.112-2.807-.097l.51-.446c-.39 2.645-.7 5.3-1.153 7.937l-.623 3.962c-.193 1.322-.417 2.64-.56 3.97l-.31-.354 12.4-.207c2.067-.025 4.134-.118 6.2-.064 2.067.05 4.134.138 6.2.076l-.506.498c.05-5.186.173-10.306.34-15.496zm.837-.825c.035 5.384.055 10.877-.015 16.34-.005.354-.29.638-.642.643h-.01c-2.068.026-4.135.05-6.2-.042-2.068-.078-4.135-.023-6.2-.03l-12.402.034c-.338 0-.613-.272-.614-.61 0-.027.002-.06.006-.085.352-2.65.605-5.315.948-7.966l.246-1.99.327-1.98.677-3.954.01-.058c.044-.26.28-.44.54-.422.97.07 1.94.024 2.914.002l2.903.087 2.892.07c.96.027 1.948-.03 2.928-.047 1.985-.09 3.91-.024 5.863-.03l5.83.036zM223.933 93.432l-22.48-.126-1.062 15.086 22.802-.263"/><path fill="#E7E9F1" d="M223.506 93.836l-5.575.1c-1.847.03-3.698.083-5.52.084-1.83.02-3.644-.004-5.468-.036l-2.74-.05c-.912-.052-1.83-.122-2.753-.113l.515-.477c-.21 2.512-.343 5.03-.615 7.537l-.355 3.765c-.104 1.256-.238 2.51-.292 3.77l-.315-.335 11.398-.338c1.9-.046 3.8-.16 5.7-.13 1.9.03 3.8.096 5.7.012l-.5.48c.208-4.78.49-9.488.82-14.268zm.854-.807c-.13 4.98-.276 10.074-.516 15.132-.016.342-.294.61-.63.62h-.014c-1.9.048-3.8.095-5.7.023-1.902-.057-3.8.02-5.702.034l-11.4.165c-.338.005-.616-.265-.62-.603v-.054c.174-2.515.247-5.036.41-7.55l.11-1.888.193-1.88.41-3.762.006-.06c.03-.276.274-.476.55-.455.95.076 1.903.037 2.86.02l2.85.107 2.837.09c.942.034 1.913-.017 2.875-.027 1.95-.076 3.84.003 5.756.01l5.726.076zM259.768 95.696l-22.914.02-2.137 15.9h26.778"/><path fill="#E7E9F1" d="M259.376 96.134l-5.683.127c-1.885.038-3.773.1-5.636.11-1.87.028-3.726.012-5.59-.01l-2.803-.032c-.932-.048-1.87-.112-2.81-.096l.51-.446c-.39 2.645-.702 5.3-1.154 7.937l-.623 3.962c-.193 1.323-.417 2.64-.56 3.97l-.31-.353 13.388-.207c2.23-.024 4.463-.117 6.694-.063 2.23.05 4.462.138 6.693.076l-.503.56c-.593-5.19-1.12-10.334-1.614-15.534zm.785-.875c.69 5.372 1.376 10.834 1.985 16.284.04.357-.217.68-.575.72l-.064.003h-.01c-2.232.026-4.464.05-6.695-.042-2.23-.08-4.462-.024-6.693-.032l-13.39.035c-.337 0-.612-.273-.613-.61 0-.028.002-.06.006-.086.352-2.65.605-5.314.948-7.965l.246-1.99.327-1.98.677-3.954.01-.058c.044-.26.28-.44.54-.422.968.07 1.937.024 2.91.002l2.9.086 2.89.07c.96.028 1.945-.03 2.923-.05 1.98-.09 3.903-.028 5.854-.04l5.827.03z"/><path fill="#DDE3F2" d="M327.143 105.59c.1-.21.483-.645.903-.72l.492-.08c.21-.03.42-.075.62-.132.408-.11.8-.264 1.163-.464.728-.402 1.346-.988 1.808-1.694.934-1.416 1.223-3.252.985-4.995-.22-1.78-1.01-3.364-2.32-4.503-1.294-1.128-3.026-1.717-4.735-1.627l-.178.01-.17-.065-.99-.37-.43-.16-.107-.453-6.28-26.67.915.726c-20.383.08-40.767.054-61.15-.01l-15.288-.056-7.644-.088-7.644-.01-30.575-.015.654-.573-3.708 26.507-.04.284-.257.115-1.09.488-.123.055-.128-.01c-1.833-.155-3.728.433-5.13 1.64-1.424 1.185-2.324 2.954-2.48 4.804-.154 1.846.452 3.74 1.65 5.165 1.205 1.426 2.976 2.326 4.837 2.492l-.263.07.22-.147.76-.505-.12.904-2.392 18.113-2.374 18.115-.51-.583 75.497-.246 18.874-.06 18.875.075c12.583.04 25.165.13 37.748.057l-.67.85-8.762-35.888.6.59c-.193-.04-.467-.145-.677-.356-.214-.208-.304-.445-.36-.585zm1.594.138c.083-.108.132-.314.06-.493-.072-.18-.208-.252-.26-.262l.6.593 8.74 35.893.267 1.095-1.13.002c-12.584.024-25.166.068-37.75-.01l-18.873-.105-18.873.008-75.496.04h-.938l.124-.93 4.836-36.22 1.32.822-.22.148-.244.165-.3-.024c-2.185-.17-4.304-1.224-5.74-2.9-1.432-1.675-2.178-3.92-2.01-6.133.166-2.205 1.225-4.335 2.924-5.773 1.67-1.462 3.95-2.196 6.17-2.028l-.477.084 1.087-.5-.558.753 1.743-13.268c.585-4.422 1.143-8.848 1.788-13.262l.128-.875.864.006 30.575.222 7.644.058 7.644-.056c5.096-.027 10.192.04 15.288.057 10.192.042 20.384.13 30.575.09 10.192-.057 20.383-.22 30.575-.2h.582l.132.566 6.242 26.68-.477-.546.988.37-.31-.048c2.124-.11 4.284.63 5.886 2.033 1.62 1.38 2.622 3.47 2.855 5.515.274 2.054-.047 4.27-1.246 6.095-.594.905-1.414 1.685-2.378 2.213-.48.264-.994.465-1.518.605-.262.072-.527.128-.793.167l-.2.03-.1.013c-.004 0 .045-.01.075-.03.18-.056.322-.47.182-.66z"/><g><path fill="#DDE3F2" d="M282.28 71.988c.276 2.466.245 4.96.84 7.397.326 2.46.365 4.95.58 7.42.107 1.236.178 2.475.233 3.716.07 1.24.127 2.48.156 3.724.058 1.24.238 2.47.29 3.71.048 1.24.134 2.48.303 3.71.13 1.233.176 2.474.294 3.71.018 1.243.47 2.447.538 3.687l.87 7.395c.082 1.238.068 2.485.228 3.716.117 1.236.307 2.464.358 3.705l.067 1.862c.066.617.115 1.235.202 1.85l.476 3.693-1.568.144-.384-3.702-.2-1.85-.314-1.84c-.144-1.232-.192-2.474-.255-3.713-.046-1.242-.18-2.476-.257-3.714.057-2.496-.427-4.943-.723-7.407-.064-.618-.176-1.23-.093-1.86.102-.633-.01-1.246-.098-1.86-.2-1.227-.506-2.445-.603-3.682.044-1.25-.102-2.482-.257-3.713-.046-.62-.12-1.234-.144-1.855-.033-.62-.032-1.243-.15-1.855-.336-1.215-.296-2.464-.273-3.712.036-.626-.063-1.24-.11-1.858l.003-1.87c-.004-2.49-.55-4.93-.82-7.398-.01-2.49-.523-4.934-.757-7.404l1.566-.145z"/></g><g><path fill="#DDE3F2" d="M290.883 76.2c1.853-.085 3.706-.275 5.56-.092l.694.062c.116.015.232.067.347.1.116.026.232.023.347.027l1.39.038c.927-.015 1.854.258 2.78.258 1.853-.01 3.706-.247 5.56-.358.462-.02.925-.08 1.39-.04.462.044.925.113 1.39.14.925 0 1.852-.046 2.778-.133v1.6l-2.78.13c-.462.02-.925-.052-1.39-.117-.462-.063-.925-.035-1.39-.042-1.852-.017-3.705.02-5.558.08-.926.054-1.853.275-2.78.14-.462-.06-.925-.212-1.39-.267-.115-.018-.23-.043-.346-.03-.116.02-.232.065-.347.062-.232-.02-.463-.038-.695-.076-.463-.078-.926-.147-1.39-.14-.463.023-.926.216-1.39.192-.926.025-1.853.098-2.78.07V76.2z"/></g><g><path fill="#DDE3F2" d="M293.847 89.047c1.153-.102 2.306-.27 3.46-.093l.43.062c.073.015.145.067.217.1.072.025.144.025.216.03.288.032.576.012.865.026.576.003 1.153.258 1.73.27 1.152-.02 2.305-.25 3.458-.362.288-.02.576-.08.865-.04.288.046.576.11.865.145.576-.008 1.153-.048 1.73-.138v1.6l-1.73.13c-.288.014-.576-.038-.865-.117-.288-.063-.576-.035-.865-.042-1.153-.017-2.306.02-3.46.08-.575.048-1.152.284-1.728.142-.288-.066-.576-.212-.865-.27-.072-.013-.144-.047-.216-.03-.072.02-.144.068-.216.064-.144-.022-.288-.038-.432-.077-.288-.08-.576-.144-.865-.143-.287.03-.575.22-.864.2-.576.048-1.153.087-1.73.065v-1.603z"/></g><g><path fill="#DDE3F2" d="M295.33 101.894c1.853-.086 3.706-.276 5.56-.093l.694.063c.116.015.232.067.347.1.117.026.233.023.348.027l1.39.038c.926-.015 1.853.258 2.78.258 1.852-.01 3.705-.247 5.558-.358.463-.02.926-.08 1.39-.04.463.044.926.113 1.39.14.926 0 1.853-.046 2.78-.133v1.6l-2.78.13c-.463.02-.926-.052-1.39-.117-.463-.063-.926-.035-1.39-.042-1.853-.017-3.706.02-5.56.08-.925.054-1.852.275-2.778.14-.463-.06-.926-.212-1.39-.267-.116-.02-.232-.044-.347-.032-.115.02-.23.066-.346.063-.232-.02-.463-.037-.695-.075-.464-.078-.927-.147-1.39-.14-.464.023-.927.216-1.39.192-.927.025-1.854.098-2.78.07v-1.603z"/></g><g><path fill="#00084B" d="M264.674 185.448c.032 1.956-.75 3.923-2.134 5.333-1.377 1.424-3.365 2.223-5.333 2.175-.49-.02-.98-.066-1.46-.17-.474-.128-.926-.31-1.38-.483-.894-.377-1.712-.933-2.393-1.62-1.374-1.383-2.067-3.34-2.042-5.234-.013-1.904.727-3.82 2.08-5.195 1.336-1.385 3.242-2.224 5.195-2.25 1.965-.077 3.9.81 5.237 2.21 1.363 1.372 2.216 3.27 2.23 5.235zm-.8 0c.003-3.523-3.1-6.72-6.667-6.677-1.752 0-3.482.723-4.71 1.967-1.235 1.236-1.954 2.966-1.93 4.71.033 1.757.816 3.398 1.984 4.657.59.63 1.3 1.16 2.092 1.536.394.2.83.292 1.26.37l.647.115.657.056c.88.027 1.777-.117 2.6-.454.82-.358 1.52-.92 2.14-1.537 1.24-1.25 1.945-2.992 1.927-4.742z"/></g><g><path fill="#00084B" d="M257.607 182.484c.04.494.144.988.04 1.482l-.024.185c-.028.063-.077.125-.064.186l-.02.37c0 .248-.128.495-.13.742.04.494.105.988.174 1.482.068.247-.004.494-.045.74 0 .248.022.495.066.742.04.217-.106.425-.324.464-.217.04-.425-.106-.464-.324l-.005-.04-.008-.1c-.02-.247-.052-.494-.06-.74-.017-.248.117-.495.07-.742l-.035-1.482c-.027-.247-.137-.494-.07-.74.03-.125.106-.248.134-.372.04-.062-.002-.124-.016-.185l.042-.184c.03-.124.07-.247.065-.37-.012-.125-.108-.248-.096-.372-.013-.247-.05-.494-.036-.74.013-.222.203-.39.423-.378.202.012.36.17.376.367l.004.01z"/></g><g><path fill="#F4F6F8" d="M134.89 125.36c-.78-.69-1.19-1.39-1.68-2.11-.49-.71-.89-1.32-1.13-2.04-1.8-5.3-2.71-10.67-2.94-16.02-.19-4.57 1-9.13-.39-13.7-.11-.36-.24-.75-.41-1.16-1.27-3.31-4.1-7.92-8.69-9.03-.83-.2-1.31-.35-2.2-.29-.24.03-.5.06-.76.09-.71.11-8.13 1.36-8.68 1.56-1.24.45-2.18 1-2.92 1.62-1.96 1.66-2.52 3.88-3.46 6.24-1.71 4.27-3.1 8.62-4.31 13.01-2.37 8.61 1.6 17.39.18 26.17-.09.56.1 1.13.06 1.69v.01c.45.31.62.42 1.07.72 3.84-.36 7.73-.69 11.63-1.04 2.22-.2 4.65-.49 7.11-.84 9.65-1.37 19.75-3.57 19.47-3.68-.79-.33-1.45-.76-1.95-1.2z"/><path fill="#E6E8F0" d="M116.583 129.908c-2.46.35-4.89.64-7.11.84-3.9.35-7.79.68-11.63 1.04-.45-.3-.62-.41-1.07-.72v-.01c.04-.56-.15-1.13-.06-1.69 1.42-8.78-2.55-17.56-.18-26.17 1.21-4.39 2.6-8.74 4.31-13.01.94-2.36 1.5-4.58 3.46-6.24.74-.62 1.68-1.17 2.92-1.62.55-.2 7.97-1.45 8.68-1.56.26-.03.52-.06.76-.09.89-.06 1.37.09 2.2.29 2.017.488 6.558 1.816 5.05 3.085-2.625 2.207-17.36 15.824-7.33 45.855z"/><path d="M134.362 125.96c-.496-.446-.92-.976-1.266-1.494-.34-.526-.644-.966-.985-1.516-.317-.52-.616-1.2-.77-1.784-.192-.566-.312-1.155-.54-1.71-.19-.57-.426-1.126-.576-1.707-.14-.584-.26-1.173-.336-1.77-.134-1.195-.427-2.352-.673-3.525-.48-2.346-.822-4.724-1.025-7.12-.082-1.228.062-2.446.192-3.632.132-1.188.14-2.37.103-3.534-.04-1.163.033-2.3-.03-3.428-.07-1.124-.21-2.237-.52-3.315-.294-1.077-.798-2.15-1.32-3.147-.512-1.02-1.22-1.932-1.997-2.736l-1.148-1.207c-.377-.402-.74-.84-1.196-1.16-.434-.353-.98-.522-1.495-.687-.52-.19-.99-.362-1.565-.506-.587-.155-1.03-.253-1.54-.235-.21-.002-.546.052-.812.074l-.853.12c-1.167.176-2.338.342-3.502.54-1.162.206-2.33.402-3.475.638l-.78.158-.784.272c-.53.18-1.044.407-1.532.68-.49.27-.93.623-1.293 1.05-.373.418-.622.932-.855 1.44l-1.436 3.16c-.472 1.103-1.027 2.134-1.406 3.258-.396 1.11-.766 2.23-1.103 3.36-.7 2.253-1.435 4.493-2.065 6.768-.674 2.228-1.05 4.568-.826 6.91.18 2.336.527 4.653.887 6.99.307 2.338.735 4.707.596 7.125l-.07 3.62c-.027.605-.098 1.21-.145 1.818-.07.402.14.88.134 1.714l.002-.056v.01l-.343-.653 1.09.666-.55-.138c1.686-.313 3.42-.116 5.107-.417 1.698-.18 3.386-.477 5.105-.435 1.728.098 3.394-.253 5.08-.47.848-.07 1.705-.066 2.55-.16.848-.076 1.662-.397 2.502-.527 1.686-.228 3.394-.335 5.074-.622 1.692-.223 3.322-.782 5.018-.98.843-.125 1.686-.255 2.524-.408.826-.213 1.652-.42 2.47-.66.804-.253 1.66-.447 2.418-.667l.108-.036c-.006.008.045-.037-.118.067-.106.074-.207.2-.254.33-.056-.066-.14.73.307.922l.104.052-.01-.004-.044-.018-.328-.142c-.214-.098-.423-.205-.63-.322-.41-.23-.803-.5-1.173-.816zm1.058-1.2c.275.243.585.466.912.66.164.097.332.187.504.27l.256.117.03.014.135.068c.465.203.39 1.034.324.97-.053.138-.162.275-.276.356-.215.135-.213.108-.27.137l-.2.064c-.885.244-1.7.416-2.558.547l-2.536.434c-.838.175-1.66.426-2.487.663-1.657.458-3.388.513-5.064.864-1.686.303-3.334.84-5.034 1.082-.85.116-1.736-.02-2.588.085-.854.08-1.684.368-2.54.453-.854.092-1.72.074-2.575.132-.858.055-1.7.213-2.544.36-.842.17-1.692.257-2.546.288l-2.56.123c-1.716-.015-3.386.453-5.098.48l-.333.004-.19-.137-1.053-.764-.342-.248.013-.378v-.01l.003-.054c.068-.358-.132-1.05.02-1.822.083-.567.214-1.13.26-1.705.103-1.15.14-2.313-.024-3.47-.387-2.3-.56-4.62-.86-6.973-.204-2.356-.49-4.754-.276-7.172.05-.603.124-1.204.147-1.804.086-.598.102-1.2.155-1.802.09-1.2.243-2.43.522-3.603.55-2.31 1.158-4.617 1.973-6.855.416-1.117.966-2.184 1.373-3.3.435-1.097.78-2.273 1.06-3.398.144-.57.28-1.158.5-1.733.2-.58.43-1.182.847-1.693.397-.522.893-.97 1.34-1.43.438-.472.906-.924 1.385-1.365.985-.873 2.057-1.592 3.473-1.772l3.534-.516 3.51-.563.906-.138c.327-.03.57-.076.966-.086.69-.032 1.432.133 1.98.286.57.162 1.242.33 1.8.635.566.316 1.045.746 1.59 1.053.518.348 1.065.664 1.557 1.058.23.212.473.413.68.65l.586.725c1.426 2.03 2.56 4.18 3.308 6.497.785 2.327.947 4.812.79 7.188-.05 1.194-.197 2.372-.16 3.55-.006 1.18.07 2.34.115 3.485.047 2.338.23 4.675.55 6.997.15 1.162.345 2.322.732 3.434l.52 1.677.403 1.707c.124.573.356 1.114.546 1.667.183.554.418.95.743 1.42l1.003 1.424c.33.454.67.84 1.064 1.172z"/><path fill="#FFF" d="M116.283 81.06c-.824.272-1.61.637-2.235.994-1.286.746-2.56 1.444-3.115 2.375-5.75 9.703-9.453 21.05-9.946 31.553-.17 3.615 0 23.208 0 23.208-5.73.443-13.873.04-20.94-.08-2.692-.048-5.22-.052-7.406.047-2.284.1-24.224.375-24.467 1.32 0-8.53-.743-23.36 3.553-34.878 1.567-4.2 4.527-11.216 9.71-13.686.655-.313 1.304-.627 2.034-.893.262-.094.5-.156.743-.208.23-.047.468-.09.737-.152 2.96-.675 5.92-1.316 8.872-1.924 4.914-1.002 9.82-1.924 14.76-2.784 5.282-.92 10.59-1.78 15.958-2.612 4.345-.67 8.534-1.424 11.743-2.28z"/><path fill="#0E1338" d="M117.05 80.833c.008.1.014.255-.05.443-.06.188-.212.372-.358.466-.146.1-.297.14-.273.132l-.055.02-.217.075-.43.166c-.285.117-.566.245-.84.383-.52.267-1.134.625-1.66.938-.53.328-1.036.67-1.39 1.048-.09.094-.162.19-.23.286l-.25.415-.5.837c-.677 1.11-1.262 2.277-1.764 3.48-.53 1.185-1.158 2.325-1.737 3.493-.61 1.154-1.065 2.378-1.484 3.61-.424 1.23-.806 2.475-1.167 3.723-.723 2.497-1.26 5.04-1.717 7.584-.232 1.272-.53 2.532-.743 3.81-.197 1.28-.325 2.57-.327 3.865-.023.642.047 1.308.065 1.96.008.656.035 1.312.02 1.966l-.09 3.927c-.205 5.234-.223 10.482-.01 15.72l.034.808-.827.058c-1.12.077-2.24-.033-3.35-.034-1.112-.06-2.218.184-3.327.162-2.216-.02-4.426-.073-6.63-.154-2.207-.073-4.41-.193-6.61-.223-2.2-.062-4.386.063-6.584-.032-4.43-.46-8.816.363-13.232.102l-3.307-.005c-1.1.028-2.2.105-3.3.167-1.098.065-2.194.16-3.286.266l-1.627.18c-.268.033-.536.068-.794.115-.127.024-.257.05-.368.08-.06.015-.108.034-.147.048-.004.005-.042.02-.023.01.007-.003.013-.01.017-.017.037-.03.068-.086.074-.135l-.78-.1-.02-6.773c.02-2.262.088-4.524.168-6.786.022-2.265.053-4.534.193-6.803.164-2.266.388-4.536.783-6.787.4-2.247.894-4.494 1.655-6.666.753-2.178 1.78-4.207 2.744-6.292.965-2.08 2.114-4.11 3.636-5.92.752-.908 1.617-1.75 2.61-2.46.49-.354 1.05-.636 1.596-.887l1.63-.65.407-.16.467-.123c.324-.104.598-.168.86-.225l1.646-.393 3.306-.776c2.198-.547 4.48-.694 6.695-1.137l3.325-.673c1.11-.213 2.238-.34 3.356-.51 1.12-.153 2.212-.47 3.31-.762 1.098-.28 2.22-.434 3.34-.587 2.25-.257 4.488-.573 6.716-.954 2.217-.444 4.44-.87 6.686-1.127 2.248-.267 4.456-.707 6.65-1.22 1.094-.267 2.198-.464 3.288-.723l1.63-.39.813-.2.202-.05c.148-.037.343-.073.564-.06.476.017.856.33 1.014.45zm-1.533.456c-.114.19-.007.572.195.66.084.05.14.047.153.045l-.21.05-.833.2-1.67.368c-1.118.222-2.228.47-3.356.616-2.243.342-4.508.554-6.706 1.09-2.197.556-4.44.812-6.678 1.112-2.234.324-4.44.806-6.646 1.295-1.105.23-2.203.49-3.327.606-1.13.095-2.265.153-3.36.43-1.1.258-2.185.584-3.3.755-1.11.203-2.242.28-3.355.468-2.24.306-4.366 1.152-6.587 1.538l-3.324.626-1.67.305c-.622.108-.982.165-1.51.448l-1.482.697c-.46.263-.915.498-1.332.824-.884.56-1.697 1.263-2.43 2.057-1.476 1.577-2.71 3.444-3.69 5.434-1 1.98-1.627 4.167-2.247 6.282-.33 1.052-.618 2.123-.917 3.188-.246 1.082-.524 2.156-.712 3.253-.462 2.175-.8 4.385-1.07 6.607-.278 2.22-.65 4.45-.752 6.7-.106 2.248.073 4.503.12 6.755.064 2.253.166 4.506.173 6.777l-1.615-.205c.04-.148.132-.306.238-.415.05-.047.105-.092.162-.132.124-.084.15-.084.23-.126.115-.048.214-.08.297-.104.175-.05.324-.08.475-.11.298-.058.583-.1.867-.138.564-.082 1.124-.107 1.68-.142 1.114-.08 2.226-.048 3.333-.064 2.215 0 4.42-.11 6.62-.39 1.1-.12 2.2-.253 3.304-.297 1.1-.112 2.207-.04 3.314.095 1.108.163 2.21.132 3.31.05 1.096-.104 2.172-.295 3.295-.35 4.457-.19 8.88.192 13.278.26 2.202.064 4.4.137 6.594.156 1.096.002 2.195.25 3.29.154 1.095-.04 2.178-.237 3.26-.307l-.717.782c.246-5.263.32-10.516.265-15.775-.012-2.63-.045-5.256.045-7.888.22-2.637.31-5.297.773-7.916.5-2.608 1.227-5.165 2.06-7.677.425-1.255.87-2.5 1.358-3.73.494-1.227.997-2.448 1.446-3.695.225-.624.48-1.234.736-1.846l.386-.918.466-.878c.308-.587.624-1.17.96-1.74.33-.574.602-1.178.934-1.752l.475-.874.236-.44c.106-.18.223-.352.35-.502.51-.61 1.1-1.017 1.674-1.39.594-.37 1.107-.69 1.743-1.04.308-.165.62-.316.94-.456l.483-.2.246-.094.062-.023c.063-.02-.05.005-.156.092-.107.08-.22.252-.24.427-.027.178.018.32.065.407z"/><path fill="#E6E8F0" d="M60.424 128.14c.71-.013 1.42 0 2.13.03.71.186 1.422-.128 2.132-.19 1.42-.102 2.84.08 4.262.098.71.007 1.42.05 2.13.108.71.042 1.422.1 2.132.184.71.055 1.42-.013 2.13.048.71.067 1.422.094 2.132.038.71-.017 1.42.05 2.13.057.71.074 1.422-.252 2.132-.21l4.262-.192c.71.017 1.42.18 2.13.114.71-.008 1.422-.07 2.132-.03.71.137 1.42.133 2.13.084l2.132-.138c.434-.028.81.3.837.735s-.3.81-.735.837h-.032l-.07.002-2.13.044c-.71 0-1.422.038-2.132.175-.71.05-1.42-.034-2.13-.085-.71-.067-1.422-.047-2.132-.084-1.42-.294-2.84-.035-4.262.044-.355.002-.71.072-1.066-.077-.355-.16-.71-.104-1.066-.07-.71.085-1.42.28-2.13.264-2.842-.185-5.684-.004-8.525-.43-1.42-.244-2.84.11-4.262.14-.71 0-1.42-.237-2.13-.033-.71.057-1.422.102-2.132.113-.435.007-.793-.34-.8-.774-.007-.436.34-.794.774-.8h.027zM64.774 122.806c.615-.014 1.23 0 1.845.03.614.185 1.23-.13 1.844-.192 1.23-.1 2.46.082 3.69.1.615.006 1.23.048 1.845.107.614.043 1.23.1 1.844.185.615.055 1.23-.013 1.845.048.614.067 1.23.094 1.844.038.615-.016 1.23.05 1.845.058.614.074 1.23-.252 1.844-.21l3.69-.192c.615.016 1.23.18 1.845.113.614-.01 1.23-.07 1.844-.03.615.136 1.23.132 1.845.083l1.844-.138c.434-.032.812.293.844.727.032.434-.293.812-.727.844l-.036.002-.08.002-1.846.044c-.615 0-1.23.038-1.845.175-.615.048-1.23-.035-1.845-.086-.615-.067-1.23-.047-1.845-.084-1.23-.294-2.46-.035-3.69.044-.308.002-.615.072-.923-.077-.308-.16-.615-.105-.923-.072-.615.086-1.23.28-1.845.265-2.46-.185-4.92-.004-7.38-.43-1.23-.244-2.46.11-3.69.14-.615 0-1.23-.237-1.845-.033-.615.056-1.23.1-1.845.112-.435.007-.793-.34-.802-.773s.338-.793.772-.802h.032z"/><path fill="#D5DAEA" d="M88.145 111.707c.576-.086 1.152-.142 1.728-.057.576.128 1.152.24 1.728.104.577-.128 1.153-.043 1.73.037.287.038.575-.026.863-.08.288-.033.576-.036.864-.003.496.057.852.505.795 1-.045.39-.33.694-.693.778l-.103.023c-.576.133-1.152.137-1.728.037-.577.016-1.153.02-1.73-.097-.575-.142-1.15-.078-1.727-.03-.288.043-.576-.064-.864-.074-.29.002-.577.033-.865.163-.457.206-.995.002-1.2-.456-.207-.456-.003-.994.455-1.2.076-.034.155-.057.234-.07l.51-.073z"/><path fill="#E6E8F0" d="M55.866 111.82c.48-.013.96 0 1.44.03.48.186.958-.128 1.438-.19.96-.102 1.918.082 2.878.097.48.007.96.05 1.44.11.48.04.958.1 1.438.183.48.055.96-.013 1.44.048.48.067.958.094 1.438.038.48-.017.96.05 1.44.057.48.074.958-.252 1.438-.21l2.878-.192c.48.02.96.17 1.44.123.48-.02.958-.095 1.438-.038.48.136.96.132 1.44.083l1.438-.138c.433-.042.818.276.86.71.04.432-.277.817-.71.858-.017.002-.033.003-.05.003l-.1.004c-.48.014-.96.04-1.44.044-.48 0-.96.038-1.44.175-.48.05-.958-.034-1.438-.085-.48-.067-.96-.047-1.44-.084-.958-.294-1.917-.035-2.877.044-.24.002-.48.072-.72-.077-.24-.153-.48-.113-.718-.075-.48.096-.96.28-1.44.27-1.917-.19-3.836-.004-5.754-.43-.96-.246-1.918.11-2.878.14-.48-.002-.96-.24-1.44-.035-.48.056-.958.1-1.438.112-.434.01-.795-.333-.805-.768-.01-.433.33-.792.763-.805h.04z"/><path fill="#D5DAEA" d="M85.126 104.497c.945-.126 1.892-.22 2.844-.176.954.09 1.908.16 2.85-.014.944-.168 1.897-.123 2.85-.083.475.017.947-.067 1.42-.142.472-.05.946-.074 1.422-.06.498.013.89.428.877.926-.013.434-.33.787-.74.863l-.063.01c-.943.173-1.892.216-2.845.157-.948.056-1.897.1-2.85.023-.955-.102-1.9.002-2.847.09-.473.062-.95-.026-1.426-.015-.475.022-.948.073-1.417.222-.476.152-.985-.11-1.136-.587-.152-.476.11-.985.587-1.136.05-.016.1-.027.15-.034l.322-.043z"/><path fill="#E6E8F0" d="M57.403 105.775c.332-.028.666-.028 1-.012.34.17.66-.157.99-.234.66-.13 1.335.026 2 .013.334-.007.67.022 1.004.067.335.028.67.072 1.006.142.335.04.665-.04 1 .006.336.053.67.066 1-.004.332-.03.668.02 1 .015.337.06.656-.28.99-.252l1.99-.275c.334.006.673.142 1.003.08.332-.034.662-.122.997-.08.338.122.67.104 1.002.04l.993-.18c.428-.077.84.208.916.636.078.427-.207.838-.635.915-.025.004-.05.008-.074.01l-.142.012c-.332.028-.664.07-.996.086-.333.014-.664.066-.99.217-.332.063-.668-.006-1.003-.043-.336-.053-.668-.02-1.002-.042-.678-.266-1.333.02-1.995.128-.166.01-.33.086-.502-.056-.173-.147-.338-.1-.502-.055-.33.11-.654.31-.987.313-1.34-.134-2.663.107-4.012-.264-.676-.216-1.327.167-1.99.225-.334.012-.677-.21-1 .008-.33.07-.662.13-.995.154-.433.033-.81-.29-.844-.724-.033-.43.288-.807.717-.844l.06-.005z"/><path fill="#D5DAEA" d="M89.014 97.567c.74-.137 1.485-.243 2.237-.21.757.078 1.51.14 2.25-.047.737-.18 1.49-.145 2.243-.115.376.012.745-.078 1.115-.158.37-.058.745-.086 1.12-.078.498.01.894.422.884.92-.01.417-.298.762-.684.858l-.078.02c-.738.183-1.485.237-2.24.188-.745.067-1.492.122-2.247.056-.757-.09-1.5.023-2.243.122-.37.068-.75-.014-1.125.002-.373.028-.745.084-1.11.238-.46.195-.992-.02-1.188-.48-.195-.462.02-.993.48-1.19.062-.025.123-.043.185-.055l.402-.073z"/><path fill="#E6E8F0" d="M58.795 99.73c.39-.04.784-.053 1.177-.05.404.158.775-.182 1.162-.27.777-.155 1.573-.024 2.358-.063.392-.02.787-.003 1.183.03.395.015.79.046 1.188.103.396.028.783-.066 1.18-.032.395.04.79.04 1.177-.042.39-.043.787-.004 1.18-.023.396.047.766-.304 1.16-.29l2.338-.35c.393-.007.795.116 1.184.042.39-.047.777-.147 1.173-.118.4.11.793.078 1.18.004l1.167-.217c.428-.08.84.202.92.63.08.428-.203.84-.63.92l-.062.008-.12.014c-.392.04-.782.094-1.173.124-.392.026-.78.09-1.164.254-.39.076-.786.02-1.18-.005-.397-.04-.788.006-1.182-.004-.803-.24-1.57.072-2.347.203-.196.015-.387.098-.593-.037-.206-.142-.4-.09-.593-.037-.385.122-.765.333-1.157.35-1.58-.083-3.135.21-4.73-.11-.8-.192-1.56.215-2.342.298-.392.026-.8-.183-1.178.047-.388.082-.777.154-1.168.192-.432.04-.817-.276-.86-.708-.04-.43.273-.814.702-.86l.05-.002zM81.156 92.367c.36-.053.72-.078 1.085-.088.382.143.708-.208 1.062-.31.71-.178 1.45-.073 2.174-.137.36-.032.727-.03 1.094-.01.365.004.732.022 1.102.067.367.015.72-.09 1.087-.07.367.027.73.015 1.085-.08.36-.056.726-.03 1.088-.06.37.033.694-.33 1.06-.327l2.142-.426c.363-.02.74.09 1.095.003.358-.06.71-.172 1.078-.156.375.096.735.052 1.09-.035l1.068-.256c.423-.1.85.16.95.583.1.423-.16.85-.583.95-.022.005-.044.01-.066.013l-.13.02c-.36.052-.717.12-1.077.16-.36.04-.717.117-1.063.293-.355.088-.725.045-1.09.033-.37-.028-.727.032-1.092.035-.753-.213-1.446.124-2.16.28-.18.02-.352.11-.548-.018-.197-.134-.373-.074-.55-.017-.35.134-.69.358-1.05.388-1.464-.032-2.886.31-4.375.042-.748-.165-1.43.266-2.148.375-.36.038-.747-.158-1.085.084-.356.095-.71.18-1.07.23-.43.06-.83-.24-.89-.67-.06-.428.236-.824.663-.888l.053-.01z"/><path fill="#5053AB" stroke="#5053AB" stroke-width="2" stroke-miterlimit="10" d="M24.453 157.244h97.912v58.862H24.453zM24.453 157.244h97.912v-12.49H24.453z"/><path fill="#424595" d="M114.68 165.1v43.97h-.37c-.04-.14-.08-.28-.11-.42-.36-1.57-.25-3.2-.29-4.81-.2-7.53-3.93-14.9-9.88-19.52-4.19-3.25-9.29-5.12-13.67-8.12-3.83-2.61-7.24-6.61-7.67-11.1h31.99z"/><path fill="#5053AB" stroke="#5053AB" stroke-width="2" stroke-miterlimit="10" d="M36.16 136.64h74.5v8.11h-74.5z"/><path fill="#00084B" d="M115.247 164.534c.002 1.863-.003 3.734-.04 5.625-.03.953.032 1.832.092 2.72.038.902-.036 1.888-.086 2.85-.037 3.728.317 7.255.345 10.992-.02.943-.115 1.91-.12 2.843-.035.942.034 1.848.1 2.76.15 1.824 0 3.733-.044 5.598-.105 1.88-.113 3.733-.114 5.587-.077 1.853.335 3.698.066 5.56l-.12.842-.647-.074c-.67-.077-1.343-.167-2.015-.1-.672.11-1.344.132-2.016.11l-4.033-.052c-2.688-.075-5.377-.052-8.065-.065-1.344-.046-2.688-.273-4.032-.26-.672-.003-1.344.098-2.016.146-.672.037-1.344.005-2.016-.02l-4.032-.23c-1.344.016-2.688.033-4.032.078l-.368.012-.005-.386c-.046-3.664-.005-7.328.075-10.992.004-1.832-.147-3.664-.24-5.496-.058-1.832-.165-3.664-.184-5.496-.232-3.664.36-7.328.013-10.992l-.12-2.748c-.044-.916-.105-1.832-.013-2.748l.067-1.374c.005-.458-.025-.916-.035-1.374l-.073-2.748-.023-.843.908-.044c1.374-.065 2.734.204 4.09.25l2.052-.03c.686-.02 1.373-.036 2.044.03.677.04 1.34.116 2.03.082.684-.01 1.407-.156 2.093-.154 1.372 0 2.692.144 4.04.18l2.027.047 2.08-.06 1.04-.024 1.003.04 2 .08c1.35.022 2.784-.072 4.198-.117 1.373-.007 2.78-.038 4.127-.006zm-1.132 1.132l-3.967.035c-1.284-.032-2.556-.096-3.9-.06-1.364.062-2.8.276-4.055.18l-1.943-.055c-.662.008-1.326.02-2.002.065-1.34.05-2.726.278-4.017.232-.65-.002-1.254-.2-1.91-.22-.647-.047-1.325.032-1.996.103-1.337.144-2.608-.15-3.936-.14-1.327.008-2.654.284-3.968.194l.9-.9c-.277 3.664.043 7.328-.212 10.992-.32 3.664.46 7.328.257 10.992.02 1.832-.09 3.664-.13 5.496-.066 1.832-.385 3.664-.325 5.496.21 3.664.394 7.328.31 10.992l-.8-.8c1.343.08 2.687.226 4.03.204 1.345-.036 2.69-.252 4.033-.37.672-.022 1.344-.104 2.016-.008.67.1 1.343.292 2.015.312 1.344.06 2.688-.357 4.032-.376 1.344-.036 2.688.075 4.032.102 1.343.064 2.687.033 4.03.054l4.033.05c.672-.01 1.344.033 2.016.166.67.09 1.343.016 2.015-.044l-.71.71c-.21-1.806.18-3.627.16-5.447.043-1.817.08-3.64.053-5.45-.086-3.6.18-7.328-.143-10.823-.026-3.59.248-7.36.18-10.944-.037-.882-.128-1.716-.09-2.647.03-.924.095-1.88.057-2.752-.043-1.762-.06-3.547-.067-5.338zM23.438 156.456c2.08.013 4.162-.007 6.242.033 2.08.14 4.162-.102 6.242-.188 4.162-.086 8.323.06 12.485.088 2.08.01 4.162.04 6.242.103 2.08.048 4.16.09 6.24.18 2.082.086 4.163-.01 6.243.056 2.08.037 4.162.112 6.242.046 2.08-.034 4.162.05 6.242.04 2.08.11 4.162-.23 6.242-.19l12.484-.2c2.08.027 4.162.155 6.242.115 2.08-.004 4.162-.077 6.242-.02l3.12.106c1.04-.01 2.082 0 3.122-.03l6.242-.14v1.575l-6.242.052-3.12.025-3.122.13c-2.08.053-4.162-.03-6.242-.075-2.08-.064-4.162-.05-6.242-.085-4.162-.263-8.323-.014-12.485.038-1.04.024-2.082.07-3.122-.09-1.04-.143-2.08-.067-3.12-.042l-3.122.163c-1.04.038-2.08.133-3.12.09-2.082-.16-4.163-.102-6.243-.077-1.04-.013-2.08.012-3.12-.036-1.04-.033-2.082-.06-3.122.02-2.08.193-4.16-.01-6.24-.12-1.04-.083-2.082-.008-3.122-.048l-3.12-.168c-4.163-.213-8.324.117-12.486.142-2.08-.025-4.162-.196-6.242-.032-2.08.066-4.162.074-6.242.115v-1.577zM111.623 144.077c-3.188.047-6.376-.204-9.564.163-3.19.098-6.377-.092-9.565-.1-1.594-.007-3.188-.055-4.782-.112-1.594-.04-3.188-.105-4.782-.187-.796-.04-1.593-.012-2.39-.008l-2.39-.037c-1.595-.077-3.19-.084-4.783-.03l-4.782-.052c-.797-.024-1.594.014-2.39.102-.798.088-1.595.08-2.392.1l-9.564.183c-1.595-.03-3.19-.16-4.783-.104-1.594 0-3.188.086-4.782.012-.797-.03-1.594-.085-2.39-.1-.798.01-1.595.004-2.392.034l-4.782.137v-1.575l4.783-.05 2.39-.026 2.392-.126c.797-.06 1.594-.017 2.39-.006l2.392.067c1.594.072 3.188.056 4.782.087 1.593.046 3.187.21 4.78.118l4.783-.136c.797-.01 1.594-.09 2.39.02.798.147 1.595.166 2.392.113 1.594-.07 3.188-.274 4.782-.274.797.013 1.594.112 2.39.122.798-.003 1.595-.018 2.392-.04.796.007 1.593-.002 2.39.02.797.026 1.594.082 2.39.034.798-.054 1.595-.157 2.392-.118.797.016 1.594.115 2.39.17.798.09 1.595.066 2.392.067.797.033 1.594.112 2.39.168 3.19.24 6.377-.088 9.565-.132 3.187.214 6.375-.068 9.563-.08v1.577z"/><circle fill="#6EDBD8" cx="106.87" cy="202.79" r="3.011"/><path fill="#DCF9F9" d="M91.518 200.28c.086.417.142.836.057 1.254-.128.418-.24.837-.104 1.255.13.417.044.836-.036 1.254-.037.21.027.418.082.628.032.21.035.418.002.628h-1.802c-.133-.418-.137-.837-.037-1.255-.017-.418-.022-.837.096-1.255.142-.418.078-.837.03-1.255-.043-.21.064-.418.074-.628-.002-.21-.033-.418-.163-.628h1.8z"/><path fill="#6EDBD8" d="M96.203 200.28c.086.417.142.836.057 1.254-.128.418-.24.837-.104 1.255.128.417.043.836-.037 1.254-.038.21.026.418.08.628.033.21.036.418.003.628H94.4c-.132-.418-.136-.837-.036-1.255-.016-.418-.02-.837.097-1.255.143-.418.08-.837.03-1.255-.042-.21.065-.418.075-.628-.002-.21-.033-.418-.163-.628h1.8zM32.154 197.242h11.828v11.828H32.154z"/></g><g><path d="M456.346 135.85c.482-1.402 1.294-2.717 2.412-3.704.6-.442 1.177-.896 1.8-1.306.624-.415 1.316-.725 2.034-.978 1.464-.408 3.068-.39 4.526.11 1.458.474 2.707 1.306 3.798 2.268 1.104.956 1.978 2.113 2.703 3.33.736 1.21 1.317 2.498 1.742 3.828.454 1.317.897 2.637 1.13 4.007.207 1.372.354 2.742.494 4.118.095 1.38-.007 2.764-.116 4.137-.204 1.36-.106 2.777-.468 4.13-.276 1.363-.674 2.706-1.195 4.004-.53 1.292-1.08 2.595-1.842 3.783-.79 1.172-1.746 2.205-2.665 3.262-.947 1.03-1.962 2.027-3.147 2.797-.593.38-1.205.732-1.832 1.05-.6.363-1.24.66-1.874.966-1.278.595-2.633 1.05-4.038 1.32l-.243-1.557c1.272-.22 2.515-.607 3.697-1.132.59-.263 1.173-.55 1.727-.886.55-.34 1.057-.755 1.554-1.165 1.03-.774 2.047-1.58 2.967-2.503.937-.91 1.722-1.962 2.46-3.042 1.628-2.087 2.447-4.683 2.98-7.246.073-.32.132-.644.18-.97.06-.323.165-.638.27-.955.11-.317.2-.64.253-.966.033-.33.04-.662.062-.992.023-1.33-.138-2.647-.197-3.954-.13-5.24-1.992-10.495-5.533-14.294-.887-.953-2.074-1.608-3.295-1.923-1.222-.327-2.507-.22-3.7.084-.604.136-1.21.313-1.77.6-.584.242-1.08.656-1.497 1.118-.855.905-1.526 1.97-1.882 3.155l-1.494-.493z"/><path fill="#FFF" d="M470.837 207.126c-3.66 3.66-5.29 7.31-4.9 10.97h-71.85c.32-3.66-1.32-7.31-4.9-10.97l-.1-.22 17.51-55.9-12.51-55.31h71.85l-12.51 55.31 17.51 55.9-.1.22z"/><path fill="#E6E8F0" d="M465.937 218.096h-71.85c.32-3.66-1.32-7.31-4.9-10.97h81.65c-3.66 3.66-5.29 7.31-4.9 10.97z"/><path fill="#E6E8F0" d="M470.94 206.906l-.1.22-4.9 10.97h-13.3c-.99-1.89-1.19-4.18-.53-6.21.69-2.16 2.57-3.84 4.65-4.76.48-1.27 1.09-2.91 1.4-4.21 2.02-8.45-1.93-17.1-6.15-24.69-5.36-9.61-11.69-19.28-18.26-28.11 4.25-5.36 8.53-10.74 11.86-16.72 3.33-5.97 5.69-12.62 5.82-19.45.12-6.46-1.83-12.91-5.44-18.25h19.95l-12.51 55.31 17.51 55.9z"/><path d="M471.498 207.582c-.857.888-1.46 1.542-2.088 2.352-.61.786-1.154 1.616-1.597 2.49-.885 1.742-1.35 3.67-1.174 5.598l.07.783-.77-.007-4.49-.038-4.49.093c-2.995.06-5.988-.11-8.982-.126-5.987-.023-11.975.16-17.962.227-5.987.167-11.975.04-17.962-.07l-8.98.158c-2.995.033-5.988-.058-8.982-.08l-.96-.007.098-.934c.2-1.887-.205-3.818-1.05-5.584-.832-1.78-2.106-3.362-3.498-4.81l-.09-.094-.05-.11-.1-.22-.11-.25.08-.26c.726-2.33 1.49-4.65 2.186-6.988l2.054-7.03c.766-2.318 1.593-4.616 2.392-6.924.69-2.342 1.28-4.714 2.07-7.025l4.456-13.95 4.403-13.967-.014.343c-1.097-4.596-1.736-9.296-2.915-13.875-.547-2.3-1.2-4.574-1.66-6.892l-1.43-6.944c-.905-4.64-1.986-9.242-3.08-13.84-1.118-4.59-2.115-9.21-3.156-13.82l-.108-.472.48.002 17.963.09c5.987-.063 11.975-.27 17.962-.3 5.987-.053 11.975-.155 17.962-.17 5.986.083 11.974.25 17.96.085l.847-.023-.183.852c-.993 4.62-1.895 9.26-2.934 13.87-.54 2.3-1.14 4.585-1.657 6.89l-1.484 6.932c-.91 4.638-2.256 9.178-3.343 13.777l-1.51 6.925c-.56 2.296-1.078 4.6-1.7 6.882l-.002.01-.012-.29c.444 1.14.84 2.293 1.22 3.453.377 1.16.807 2.305 1.138 3.48.706 2.337 1.384 4.682 2.053 7.03l2.136 7.004 2.294 6.954c1.426 4.67 2.726 9.378 4.354 13.983 1.62 4.608 3.04 9.28 4.545 13.923l.093.285-.128.285c-.053.12-.11.234-.17.347zm-1.315-.91c.006-.035.016-.066.03-.096l-.035.57c-1.435-4.666-2.95-9.306-4.28-14.006-1.314-4.704-3-9.29-4.52-13.93l-2.086-7.02-2.275-6.96c-1.598-4.615-3.253-9.212-4.296-14l-.047-.222.032-.166.002-.01c.194-1.166.42-2.326.677-3.48.25-1.154.477-2.313.742-3.464l1.724-6.876c1.054-4.606 1.786-9.284 2.997-13.855l1.68-6.886c.536-2.3.987-4.62 1.485-6.93 1.033-4.61 2.207-9.188 3.268-13.792l.66.827c-5.986-.144-11.974.103-17.96.246-5.988.027-11.976-.053-17.963-.075-5.987.037-11.975-.284-17.962-.358-2.994.03-5.987.074-8.98.157l-8.982.138.765-.957c1.065 4.604 2.193 9.194 3.086 13.837.913 4.638 1.864 9.268 3.137 13.825 1.246 4.563 2.546 9.114 3.095 13.835.81 4.662 2.494 9.126 3.45 13.754l.06.29-.08.255c-1.503 4.646-3.08 9.267-4.527 13.93l-4.433 13.957c-.38 1.16-.715 2.334-1.155 3.475-.408 1.15-.873 2.284-1.235 3.45-.684 2.343-1.338 4.696-2.046 7.032l-2.358 6.935c-.78 2.313-1.503 4.644-2.257 6.965l-.023-.374.098.222-.102-.15c1.454 1.52 2.768 3.208 3.737 5.118.964 1.903 1.488 4.093 1.3 6.263l-.51-.557 8.98-.012 8.98.035c5.988-.15 11.976-.29 17.963-.17 5.987.03 11.975.167 17.962.12 2.994-.028 5.987-.193 8.98-.148l4.492.07 4.49-.05-.663.737c-.28-2.203.202-4.475 1.18-6.422.48-.98 1.068-1.898 1.715-2.758.63-.84 1.408-1.733 2.008-2.32z"/><path fill="#6EDBD8" d="M412.09 196.898l-3.182-17.45 4.714-11.225 8.725-1.59 7.936 8.92 3.18 17.448"/><circle fill="#FFF" cx="419.098" cy="172.631" r="1.883"/><path d="M425.13 169.223c1.352-.492 2.752-.852 4.034-1.526 1.33-.54 2.694-.994 4.023-1.536l3.988-1.626c.666-.274 1.283-.643 1.936-.942.656-.296 1.29-.632 1.9-1.013 1.263-.68 2.493-1.432 3.596-2.352 1.163-.83 2.262-1.75 3.29-2.73 1.127-.878 2.05-1.97 2.946-3.066.98-1.04 1.61-2.338 2.232-3.596l.012-.023c.096-.195.332-.275.527-.18.195.097.275.333.18.528l-.008.015c-.352.645-.67 1.313-1.054 1.94l-.61.92c-.19.314-.37.64-.603.926-.456.578-.92 1.154-1.468 1.645-.538.5-1.028 1.047-1.6 1.505-.568.463-1.15.9-1.706 1.37-.555.472-1.117.938-1.713 1.357-.54.503-1.286.693-1.855 1.148-.59.425-1.168.878-1.803 1.232-2.57 1.355-5.158 2.686-7.912 3.602-1.378.447-2.662 1.125-4.008 1.654-1.392.4-2.703 1.02-4.068 1.494-.205.07-.43-.037-.5-.243-.072-.203.034-.425.236-.5l.01-.002zM406.983 150.912c.28 1.01.418 2.06.878 3.02.32.994.558 2.01.885 3 .168.493.34.983.495 1.482l.537 1.468c.214.474.454.937.688 1.4.24.462.458.94.784 1.35.537.892 1.15 1.745 1.923 2.454.688.78 1.448 1.492 2.233 2.174.693.783 1.537 1.406 2.348 2.06.743.748 1.68 1.248 2.538 1.84.18.125.224.37.1.55-.124.178-.37.223-.548.1l-.002-.002-1.305-.908c-.22-.15-.435-.303-.645-.466l-.67-.438c-.442-.297-.824-.672-1.213-1.037-.388-.367-.795-.71-1.168-1.093-.368-.388-.71-.798-1.105-1.157-.39-.364-.775-.736-1.13-1.138-.18-.198-.378-.382-.495-.63-.1-.263-.28-.46-.454-.664-.367-.393-.727-.797-1.026-1.245-1.087-1.85-2.075-3.78-2.56-5.862-.232-1.038-.7-1.997-1.008-3.012-.18-1.047-.583-2.03-.844-3.054-.054-.21.074-.425.284-.48.208-.052.42.07.476.277l.003.012z"/></g></g><g><path fill="#00084B" d="M14.693 215.943c9.824.065 19.648.244 29.473.17l7.368.15c2.456.04 4.912-.03 7.37-.04l14.737-.145c2.457-.01 4.914-.083 7.37-.037l7.368.12c4.912.16 9.825-.005 14.737-.028 9.825.008 19.648.366 29.473.343 4.912.087 9.825-.117 14.737-.09l7.368.225c2.456.025 4.913-.14 7.37-.097l29.472.22c4.912.037 9.825-.01 14.736.198 2.457.048 4.913.176 7.37.136l7.368-.11c4.912.048 9.824.183 14.736.275 4.912.096 9.825.03 14.737.017 4.914-.046 9.826.033 14.738.044 4.912.027 9.825.045 14.737.122 9.824.186 19.65-.224 29.475-.184l14.737-.08 3.684-.015 3.685.063 7.368.12c9.824.143 19.65-.21 29.474-.114 2.456.02 4.912.135 7.368.095l7.37-.045c4.912-.08 9.823.106 14.735.247 2.456.067 4.912.018 7.368.023l3.684-.013 3.684.087c4.91.237 9.825-.185 14.737-.034l7.368.155 7.37.083c4.91-.026 9.824-.15 14.736-.006 2.456.023 4.912.115 7.368.074l7.37-.11c4.912-.086 9.824-.037 14.736-.062.442-.002.802.354.804.796.002.442-.354.802-.796.804h-.014c-4.912-.04-9.825-.013-14.737-.11l-7.368-.125c-2.457-.045-4.914.058-7.37.08-4.913.16-9.825-.014-14.737-.075l-7.37.06c-2.455.036-4.912.124-7.368.13-9.823-.34-19.65-.096-29.473-.357-4.913.07-9.825.22-14.737.072l-7.368-.133c-2.456-.068-4.912.02-7.37.02-9.824.037-19.647-.36-29.472-.208l-7.37.132-3.684.068-3.683-.026-14.737-.13-7.368-.064-7.368-.196-7.368-.184c-2.456-.01-4.912.02-7.37.04-4.912.105-9.824.112-14.736.132l-7.37.032-3.683.016-3.684-.07-7.368-.148c-2.456-.03-4.912-.12-7.368-.05-4.913.073-9.826.376-14.738.32-2.457 0-4.912-.318-7.368-.355-2.456-.083-4.912.032-7.37.13-4.912.28-9.824.156-14.736.08-9.824-.173-19.65-.167-29.473-.26-2.456.008-4.912-.208-7.368-.223l-7.37.114c-4.91-.035-9.823-.28-14.735-.28-19.65-.17-39.298-.16-58.948-.09l-14.736-.174c-2.456-.016-4.912-.087-7.368-.06l-7.37.108c-9.823-.112-19.648.017-29.473.032-.442 0-.8-.357-.8-.8-.002-.44.356-.8.798-.8h.01z"/></g></svg>